G04 #@! TF.GenerationSoftware,KiCad,Pcbnew,5.99.0-unknown-632494c~88~ubuntu19.10.1*
G04 #@! TF.CreationDate,2020-05-12T07:32:40+02:00*
G04 #@! TF.ProjectId,MMDVM_RPT_Hat,4d4d4456-4d5f-4525-9054-5f4861742e6b,0.3*
G04 #@! TF.SameCoordinates,Original*
G04 #@! TF.FileFunction,Paste,Top*
G04 #@! TF.FilePolarity,Positive*
%FSLAX46Y46*%
G04 Gerber Fmt 4.6, Leading zero omitted, Abs format (unit mm)*
G04 Created by KiCad (PCBNEW 5.99.0-unknown-632494c~88~ubuntu19.10.1) date 2020-05-12 07:32:40*
%MOMM*%
%LPD*%
G01*
G04 APERTURE LIST*
%ADD10R,0.800000X0.800000*%
%ADD11R,0.500000X0.900000*%
%ADD12R,2.500000X2.550000*%
%ADD13R,2.550000X2.500000*%
%ADD14R,0.250000X1.000000*%
%ADD15R,1.000000X0.250000*%
%ADD16R,1.950000X1.500000*%
%ADD17R,0.800000X0.750000*%
%ADD18R,1.500000X1.950000*%
%ADD19R,0.750000X0.800000*%
%ADD20R,0.800000X0.900000*%
%ADD21R,0.900000X0.800000*%
%ADD22R,0.900000X0.500000*%
%ADD23R,1.300000X1.300000*%
%ADD24R,2.000000X1.300000*%
%ADD25R,1.300000X1.600000*%
%ADD26R,2.000000X1.600000*%
%ADD27R,2.000000X1.500000*%
%ADD28R,2.000000X3.800000*%
%ADD29R,1.550000X0.600000*%
%ADD30R,2.400000X1.900000*%
G04 APERTURE END LIST*
D10*
X30000000Y-109600000D03*
X28400000Y-109600000D03*
D11*
X33550000Y-109600000D03*
X32050000Y-109600000D03*
D12*
X68575000Y-85125000D03*
X68575000Y-80075000D03*
X64300000Y-80075000D03*
X64300000Y-85125000D03*
D13*
X76475000Y-91925000D03*
X81525000Y-91925000D03*
X76975000Y-103050000D03*
X71925000Y-103050000D03*
D12*
X81950000Y-108525000D03*
X81950000Y-113575000D03*
D14*
X50850000Y-97600000D03*
X50350000Y-97600000D03*
X49850000Y-97600000D03*
X49350000Y-97600000D03*
X48850000Y-97600000D03*
X48350000Y-97600000D03*
X47850000Y-97600000D03*
X47350000Y-97600000D03*
X46850000Y-97600000D03*
X46350000Y-97600000D03*
X45850000Y-97600000D03*
X45350000Y-97600000D03*
X44850000Y-97600000D03*
X44350000Y-97600000D03*
X43850000Y-97600000D03*
X43350000Y-97600000D03*
D15*
X41400000Y-95650000D03*
X41400000Y-95150000D03*
X41400000Y-94650000D03*
X41400000Y-94150000D03*
X41400000Y-93650000D03*
X41400000Y-93150000D03*
X41400000Y-92650000D03*
X41400000Y-92150000D03*
X41400000Y-91650000D03*
X41400000Y-91150000D03*
X41400000Y-90650000D03*
X41400000Y-90150000D03*
X41400000Y-89650000D03*
X41400000Y-89150000D03*
X41400000Y-88650000D03*
X41400000Y-88150000D03*
D14*
X43350000Y-86200000D03*
X43850000Y-86200000D03*
X44350000Y-86200000D03*
X44850000Y-86200000D03*
X45350000Y-86200000D03*
X45850000Y-86200000D03*
X46350000Y-86200000D03*
X46850000Y-86200000D03*
X47350000Y-86200000D03*
X47850000Y-86200000D03*
X48350000Y-86200000D03*
X48850000Y-86200000D03*
X49350000Y-86200000D03*
X49850000Y-86200000D03*
X50350000Y-86200000D03*
X50850000Y-86200000D03*
D15*
X52800000Y-88150000D03*
X52800000Y-88650000D03*
X52800000Y-89150000D03*
X52800000Y-89650000D03*
X52800000Y-90150000D03*
X52800000Y-90650000D03*
X52800000Y-91150000D03*
X52800000Y-91650000D03*
X52800000Y-92150000D03*
X52800000Y-92650000D03*
X52800000Y-93150000D03*
X52800000Y-93650000D03*
X52800000Y-94150000D03*
X52800000Y-94650000D03*
X52800000Y-95150000D03*
X52800000Y-95650000D03*
D16*
X21400000Y-78400000D03*
X24150000Y-78400000D03*
D17*
X28050000Y-78400000D03*
X26550000Y-78400000D03*
X31750000Y-82900000D03*
X33250000Y-82900000D03*
X57050000Y-97200000D03*
X55550000Y-97200000D03*
D18*
X32600000Y-80175000D03*
X32600000Y-77425000D03*
D17*
X31750000Y-86300000D03*
X33250000Y-86300000D03*
X55550000Y-93800000D03*
X57050000Y-93800000D03*
D19*
X37500000Y-107400000D03*
X37500000Y-108900000D03*
X35800000Y-108900000D03*
X35800000Y-107400000D03*
X43800000Y-99950000D03*
X43800000Y-101450000D03*
X51900000Y-108050000D03*
X51900000Y-106550000D03*
X60200000Y-106550000D03*
X60200000Y-108050000D03*
D17*
X74900000Y-123900000D03*
X76400000Y-123900000D03*
X59950000Y-100250000D03*
X61450000Y-100250000D03*
X61500000Y-91800000D03*
X60000000Y-91800000D03*
X45400000Y-84200000D03*
X46900000Y-84200000D03*
X55600000Y-90400000D03*
X57100000Y-90400000D03*
X57100000Y-88800000D03*
X55600000Y-88800000D03*
X38300000Y-100300000D03*
X39800000Y-100300000D03*
X39800000Y-98800000D03*
X38300000Y-98800000D03*
D19*
X52300000Y-101450000D03*
X52300000Y-99950000D03*
X50500000Y-99950000D03*
X50500000Y-101450000D03*
D10*
X28325000Y-89575000D03*
X29925000Y-89575000D03*
X29950000Y-91600000D03*
X28350000Y-91600000D03*
X28375000Y-93600000D03*
X29975000Y-93600000D03*
X30000000Y-95600000D03*
X28400000Y-95600000D03*
X28400000Y-105600000D03*
X30000000Y-105600000D03*
X28400000Y-103600000D03*
X30000000Y-103600000D03*
X30000000Y-101600000D03*
X28400000Y-101600000D03*
X28400000Y-99600000D03*
X30000000Y-99600000D03*
X30000000Y-97600000D03*
X28400000Y-97600000D03*
D11*
X33250000Y-84600000D03*
X31750000Y-84600000D03*
X57150000Y-87000000D03*
X55650000Y-87000000D03*
D20*
X50150000Y-105800000D03*
X48250000Y-105800000D03*
X49200000Y-107800000D03*
D21*
X64600000Y-107500000D03*
X62600000Y-108450000D03*
X62600000Y-106550000D03*
D11*
X33475000Y-89575000D03*
X31975000Y-89575000D03*
X32000000Y-91600000D03*
X33500000Y-91600000D03*
D22*
X48900000Y-101450000D03*
X48900000Y-99950000D03*
D11*
X32025000Y-93600000D03*
X33525000Y-93600000D03*
X33550000Y-95600000D03*
X32050000Y-95600000D03*
X32050000Y-105600000D03*
X33550000Y-105600000D03*
X33550000Y-103600000D03*
X32050000Y-103600000D03*
X32050000Y-101600000D03*
X33550000Y-101600000D03*
X32050000Y-99600000D03*
X33550000Y-99600000D03*
X55550000Y-92100000D03*
X57050000Y-92100000D03*
X33550000Y-97600000D03*
X32050000Y-97600000D03*
D22*
X55200000Y-106450000D03*
X55200000Y-107950000D03*
X53500000Y-107950000D03*
X53500000Y-106450000D03*
X56900000Y-108100000D03*
X56900000Y-106600000D03*
X58600000Y-108100000D03*
X58600000Y-106600000D03*
D11*
X76410000Y-120610000D03*
X74910000Y-120610000D03*
X74910000Y-122300000D03*
X76410000Y-122300000D03*
D22*
X66300000Y-109950000D03*
X66300000Y-108450000D03*
D11*
X55550000Y-95500000D03*
X57050000Y-95500000D03*
X80150000Y-80800000D03*
X81650000Y-80800000D03*
X72200000Y-110400000D03*
X73700000Y-110400000D03*
X72200000Y-108650000D03*
X73700000Y-108650000D03*
X79650000Y-102000000D03*
X81150000Y-102000000D03*
X81100000Y-103600000D03*
X79600000Y-103600000D03*
X76300000Y-106750000D03*
X77800000Y-106750000D03*
X80050000Y-85700000D03*
X81550000Y-85700000D03*
X81550000Y-84000000D03*
X80050000Y-84000000D03*
X81650000Y-79125000D03*
X80150000Y-79125000D03*
X69550000Y-95500000D03*
X68050000Y-95500000D03*
X68050000Y-97200000D03*
X69550000Y-97200000D03*
X68050000Y-98900000D03*
X69550000Y-98900000D03*
X81150000Y-100300000D03*
X79650000Y-100300000D03*
D23*
X75950000Y-114350000D03*
D24*
X77100000Y-108850000D03*
D23*
X78250000Y-114350000D03*
D25*
X69300000Y-93250000D03*
D26*
X68050000Y-90350000D03*
D25*
X66800000Y-93250000D03*
X29850000Y-119250000D03*
D26*
X31100000Y-116350000D03*
D25*
X32350000Y-119250000D03*
D27*
X27550000Y-86100000D03*
X27550000Y-81500000D03*
X27550000Y-83800000D03*
D28*
X21250000Y-83800000D03*
D29*
X77300000Y-86005000D03*
X77300000Y-84735000D03*
X77300000Y-83465000D03*
X77300000Y-82195000D03*
X71900000Y-82195000D03*
X71900000Y-83465000D03*
X71900000Y-84735000D03*
X71900000Y-86005000D03*
X77200000Y-95995000D03*
X77200000Y-97265000D03*
X77200000Y-98535000D03*
X77200000Y-99805000D03*
X71800000Y-99805000D03*
X71800000Y-98535000D03*
X71800000Y-97265000D03*
X71800000Y-95995000D03*
D25*
X41750000Y-107400000D03*
X41750000Y-103400000D03*
X39250000Y-103400000D03*
X39250000Y-107400000D03*
D30*
X61200000Y-93950000D03*
X61200000Y-98050000D03*
D17*
X80050000Y-87400000D03*
X81550000Y-87400000D03*
X80150000Y-82400000D03*
X81650000Y-82400000D03*
D19*
X73375000Y-80475000D03*
X73375000Y-78975000D03*
D17*
X69450000Y-100500000D03*
X67950000Y-100500000D03*
X81050000Y-97100000D03*
X79550000Y-97100000D03*
X79650000Y-98700000D03*
X81150000Y-98700000D03*
X67950000Y-87700000D03*
X69450000Y-87700000D03*
X79550000Y-95500000D03*
X81050000Y-95500000D03*
D10*
X28400000Y-107600000D03*
X30000000Y-107600000D03*
D11*
X32050000Y-107600000D03*
X33550000Y-107600000D03*
D17*
X45850000Y-104000000D03*
X44350000Y-104000000D03*
D20*
X45200000Y-107800000D03*
X44250000Y-105800000D03*
X46150000Y-105800000D03*
D22*
X45500000Y-99950000D03*
X45500000Y-101450000D03*
X47200000Y-101450000D03*
X47200000Y-99950000D03*
M02*
