G04 #@! TF.GenerationSoftware,KiCad,Pcbnew,5.99.0-unknown-632494c~88~ubuntu19.10.1*
G04 #@! TF.CreationDate,2020-05-11T14:06:49+02:00*
G04 #@! TF.ProjectId,MMDVM_RPT_Hat,4d4d4456-4d5f-4525-9054-5f4861742e6b,0.3*
G04 #@! TF.SameCoordinates,Original*
G04 #@! TF.FileFunction,Legend,Bot*
G04 #@! TF.FilePolarity,Positive*
%FSLAX46Y46*%
G04 Gerber Fmt 4.6, Leading zero omitted, Abs format (unit mm)*
G04 Created by KiCad (PCBNEW 5.99.0-unknown-632494c~88~ubuntu19.10.1) date 2020-05-11 14:06:49*
%MOMM*%
%LPD*%
G01*
G04 APERTURE LIST*
%ADD10C,0.200000*%
%ADD11C,0.300000*%
%ADD12C,0.250000*%
%ADD13C,0.002540*%
G04 APERTURE END LIST*
D10*
X42100000Y-124300000D02*
X42100000Y-124300000D01*
X60900000Y-124300000D02*
X42100000Y-124300000D01*
D11*
X60757142Y-123807142D02*
X60542857Y-123878571D01*
X60185714Y-123878571D01*
X60042857Y-123807142D01*
X59971428Y-123735714D01*
X59900000Y-123592857D01*
X59900000Y-123450000D01*
X59971428Y-123307142D01*
X60042857Y-123235714D01*
X60185714Y-123164285D01*
X60471428Y-123092857D01*
X60614285Y-123021428D01*
X60685714Y-122950000D01*
X60757142Y-122807142D01*
X60757142Y-122664285D01*
X60685714Y-122521428D01*
X60614285Y-122450000D01*
X60471428Y-122378571D01*
X60114285Y-122378571D01*
X59900000Y-122450000D01*
X58685714Y-123807142D02*
X58828571Y-123878571D01*
X59114285Y-123878571D01*
X59257142Y-123807142D01*
X59328571Y-123664285D01*
X59328571Y-123092857D01*
X59257142Y-122950000D01*
X59114285Y-122878571D01*
X58828571Y-122878571D01*
X58685714Y-122950000D01*
X58614285Y-123092857D01*
X58614285Y-123235714D01*
X59328571Y-123378571D01*
X57971428Y-123878571D02*
X57971428Y-122878571D01*
X57971428Y-123164285D02*
X57900000Y-123021428D01*
X57828571Y-122950000D01*
X57685714Y-122878571D01*
X57542857Y-122878571D01*
X57042857Y-123878571D02*
X57042857Y-122878571D01*
X57042857Y-122378571D02*
X57114285Y-122450000D01*
X57042857Y-122521428D01*
X56971428Y-122450000D01*
X57042857Y-122378571D01*
X57042857Y-122521428D01*
X55685714Y-123878571D02*
X55685714Y-123092857D01*
X55757142Y-122950000D01*
X55900000Y-122878571D01*
X56185714Y-122878571D01*
X56328571Y-122950000D01*
X55685714Y-123807142D02*
X55828571Y-123878571D01*
X56185714Y-123878571D01*
X56328571Y-123807142D01*
X56400000Y-123664285D01*
X56400000Y-123521428D01*
X56328571Y-123378571D01*
X56185714Y-123307142D01*
X55828571Y-123307142D01*
X55685714Y-123235714D01*
X54757142Y-123878571D02*
X54900000Y-123807142D01*
X54971428Y-123664285D01*
X54971428Y-122378571D01*
X53042857Y-123878571D02*
X53042857Y-122378571D01*
X52185714Y-123878571D01*
X52185714Y-122378571D01*
X51257142Y-123878571D02*
X51400000Y-123807142D01*
X51471428Y-123735714D01*
X51542857Y-123592857D01*
X51542857Y-123164285D01*
X51471428Y-123021428D01*
X51400000Y-122950000D01*
X51257142Y-122878571D01*
X51042857Y-122878571D01*
X50900000Y-122950000D01*
X50828571Y-123021428D01*
X50757142Y-123164285D01*
X50757142Y-123592857D01*
X50828571Y-123735714D01*
X50900000Y-123807142D01*
X51042857Y-123878571D01*
X51257142Y-123878571D01*
X50114285Y-123735714D02*
X50042857Y-123807142D01*
X50114285Y-123878571D01*
X50185714Y-123807142D01*
X50114285Y-123735714D01*
X50114285Y-123878571D01*
X50114285Y-122950000D02*
X50042857Y-123021428D01*
X50114285Y-123092857D01*
X50185714Y-123021428D01*
X50114285Y-122950000D01*
X50114285Y-123092857D01*
D10*
X72900000Y-86400000D02*
X72900000Y-86400000D01*
X72500000Y-79000000D02*
X72500000Y-86400000D01*
X83100000Y-84700000D02*
X70200000Y-84700000D01*
X83100000Y-82800000D02*
X70200000Y-82800000D01*
X70200000Y-80900000D02*
X70200000Y-80900000D01*
X83100000Y-80900000D02*
X70200000Y-80900000D01*
X70200000Y-79000000D02*
X70200000Y-79000000D01*
X83100000Y-79000000D02*
X70200000Y-79000000D01*
X70200000Y-86400000D02*
X70200000Y-76900000D01*
X83100000Y-86400000D02*
X70200000Y-86400000D01*
X83100000Y-76900000D02*
X83100000Y-86400000D01*
X70200000Y-76900000D02*
X83100000Y-76900000D01*
D12*
X81538095Y-86052380D02*
X82109523Y-86052380D01*
X81823809Y-86052380D02*
X81823809Y-85052380D01*
X81919047Y-85195238D01*
X82014285Y-85290476D01*
X82109523Y-85338095D01*
X81061904Y-86052380D02*
X80871428Y-86052380D01*
X80776190Y-86004761D01*
X80728571Y-85957142D01*
X80633333Y-85814285D01*
X80585714Y-85623809D01*
X80585714Y-85242857D01*
X80633333Y-85147619D01*
X80680952Y-85100000D01*
X80776190Y-85052380D01*
X80966666Y-85052380D01*
X81061904Y-85100000D01*
X81109523Y-85147619D01*
X81157142Y-85242857D01*
X81157142Y-85480952D01*
X81109523Y-85576190D01*
X81061904Y-85623809D01*
X80966666Y-85671428D01*
X80776190Y-85671428D01*
X80680952Y-85623809D01*
X80633333Y-85576190D01*
X80585714Y-85480952D01*
X80157142Y-85957142D02*
X80109523Y-86004761D01*
X80157142Y-86052380D01*
X80204761Y-86004761D01*
X80157142Y-85957142D01*
X80157142Y-86052380D01*
X79728571Y-85147619D02*
X79680952Y-85100000D01*
X79585714Y-85052380D01*
X79347619Y-85052380D01*
X79252380Y-85100000D01*
X79204761Y-85147619D01*
X79157142Y-85242857D01*
X79157142Y-85338095D01*
X79204761Y-85480952D01*
X79776190Y-86052380D01*
X79157142Y-86052380D01*
X78538095Y-85052380D02*
X78442857Y-85052380D01*
X78347619Y-85100000D01*
X78300000Y-85147619D01*
X78252380Y-85242857D01*
X78204761Y-85433333D01*
X78204761Y-85671428D01*
X78252380Y-85861904D01*
X78300000Y-85957142D01*
X78347619Y-86004761D01*
X78442857Y-86052380D01*
X78538095Y-86052380D01*
X78633333Y-86004761D01*
X78680952Y-85957142D01*
X78728571Y-85861904D01*
X78776190Y-85671428D01*
X78776190Y-85433333D01*
X78728571Y-85242857D01*
X78680952Y-85147619D01*
X78633333Y-85100000D01*
X78538095Y-85052380D01*
X77585714Y-85052380D02*
X77490476Y-85052380D01*
X77395238Y-85100000D01*
X77347619Y-85147619D01*
X77300000Y-85242857D01*
X77252380Y-85433333D01*
X77252380Y-85671428D01*
X77300000Y-85861904D01*
X77347619Y-85957142D01*
X77395238Y-86004761D01*
X77490476Y-86052380D01*
X77585714Y-86052380D01*
X77680952Y-86004761D01*
X77728571Y-85957142D01*
X77776190Y-85861904D01*
X77823809Y-85671428D01*
X77823809Y-85433333D01*
X77776190Y-85242857D01*
X77728571Y-85147619D01*
X77680952Y-85100000D01*
X77585714Y-85052380D01*
X76061904Y-86052380D02*
X76061904Y-85052380D01*
X75728571Y-85766666D01*
X75395238Y-85052380D01*
X75395238Y-86052380D01*
X74919047Y-86052380D02*
X74919047Y-85052380D01*
X74919047Y-85528571D02*
X74347619Y-85528571D01*
X74347619Y-86052380D02*
X74347619Y-85052380D01*
X73966666Y-85385714D02*
X73442857Y-85385714D01*
X73966666Y-86052380D01*
X73442857Y-86052380D01*
X81538095Y-84252380D02*
X82109523Y-84252380D01*
X81823809Y-84252380D02*
X81823809Y-83252380D01*
X81919047Y-83395238D01*
X82014285Y-83490476D01*
X82109523Y-83538095D01*
X80680952Y-83585714D02*
X80680952Y-84252380D01*
X80919047Y-83204761D02*
X81157142Y-83919047D01*
X80538095Y-83919047D01*
X80157142Y-84157142D02*
X80109523Y-84204761D01*
X80157142Y-84252380D01*
X80204761Y-84204761D01*
X80157142Y-84157142D01*
X80157142Y-84252380D01*
X79252380Y-83585714D02*
X79252380Y-84252380D01*
X79490476Y-83204761D02*
X79728571Y-83919047D01*
X79109523Y-83919047D01*
X78538095Y-83252380D02*
X78442857Y-83252380D01*
X78347619Y-83300000D01*
X78300000Y-83347619D01*
X78252380Y-83442857D01*
X78204761Y-83633333D01*
X78204761Y-83871428D01*
X78252380Y-84061904D01*
X78300000Y-84157142D01*
X78347619Y-84204761D01*
X78442857Y-84252380D01*
X78538095Y-84252380D01*
X78633333Y-84204761D01*
X78680952Y-84157142D01*
X78728571Y-84061904D01*
X78776190Y-83871428D01*
X78776190Y-83633333D01*
X78728571Y-83442857D01*
X78680952Y-83347619D01*
X78633333Y-83300000D01*
X78538095Y-83252380D01*
X77585714Y-83252380D02*
X77490476Y-83252380D01*
X77395238Y-83300000D01*
X77347619Y-83347619D01*
X77300000Y-83442857D01*
X77252380Y-83633333D01*
X77252380Y-83871428D01*
X77300000Y-84061904D01*
X77347619Y-84157142D01*
X77395238Y-84204761D01*
X77490476Y-84252380D01*
X77585714Y-84252380D01*
X77680952Y-84204761D01*
X77728571Y-84157142D01*
X77776190Y-84061904D01*
X77823809Y-83871428D01*
X77823809Y-83633333D01*
X77776190Y-83442857D01*
X77728571Y-83347619D01*
X77680952Y-83300000D01*
X77585714Y-83252380D01*
X76061904Y-84252380D02*
X76061904Y-83252380D01*
X75728571Y-83966666D01*
X75395238Y-83252380D01*
X75395238Y-84252380D01*
X74919047Y-84252380D02*
X74919047Y-83252380D01*
X74919047Y-83728571D02*
X74347619Y-83728571D01*
X74347619Y-84252380D02*
X74347619Y-83252380D01*
X73966666Y-83585714D02*
X73442857Y-83585714D01*
X73966666Y-84252380D01*
X73442857Y-84252380D01*
X81538095Y-82352380D02*
X82109523Y-82352380D01*
X81823809Y-82352380D02*
X81823809Y-81352380D01*
X81919047Y-81495238D01*
X82014285Y-81590476D01*
X82109523Y-81638095D01*
X81157142Y-81447619D02*
X81109523Y-81400000D01*
X81014285Y-81352380D01*
X80776190Y-81352380D01*
X80680952Y-81400000D01*
X80633333Y-81447619D01*
X80585714Y-81542857D01*
X80585714Y-81638095D01*
X80633333Y-81780952D01*
X81204761Y-82352380D01*
X80585714Y-82352380D01*
X80157142Y-82257142D02*
X80109523Y-82304761D01*
X80157142Y-82352380D01*
X80204761Y-82304761D01*
X80157142Y-82257142D01*
X80157142Y-82352380D01*
X79728571Y-81447619D02*
X79680952Y-81400000D01*
X79585714Y-81352380D01*
X79347619Y-81352380D01*
X79252380Y-81400000D01*
X79204761Y-81447619D01*
X79157142Y-81542857D01*
X79157142Y-81638095D01*
X79204761Y-81780952D01*
X79776190Y-82352380D01*
X79157142Y-82352380D01*
X78585714Y-81780952D02*
X78680952Y-81733333D01*
X78728571Y-81685714D01*
X78776190Y-81590476D01*
X78776190Y-81542857D01*
X78728571Y-81447619D01*
X78680952Y-81400000D01*
X78585714Y-81352380D01*
X78395238Y-81352380D01*
X78300000Y-81400000D01*
X78252380Y-81447619D01*
X78204761Y-81542857D01*
X78204761Y-81590476D01*
X78252380Y-81685714D01*
X78300000Y-81733333D01*
X78395238Y-81780952D01*
X78585714Y-81780952D01*
X78680952Y-81828571D01*
X78728571Y-81876190D01*
X78776190Y-81971428D01*
X78776190Y-82161904D01*
X78728571Y-82257142D01*
X78680952Y-82304761D01*
X78585714Y-82352380D01*
X78395238Y-82352380D01*
X78300000Y-82304761D01*
X78252380Y-82257142D01*
X78204761Y-82161904D01*
X78204761Y-81971428D01*
X78252380Y-81876190D01*
X78300000Y-81828571D01*
X78395238Y-81780952D01*
X77633333Y-81780952D02*
X77728571Y-81733333D01*
X77776190Y-81685714D01*
X77823809Y-81590476D01*
X77823809Y-81542857D01*
X77776190Y-81447619D01*
X77728571Y-81400000D01*
X77633333Y-81352380D01*
X77442857Y-81352380D01*
X77347619Y-81400000D01*
X77300000Y-81447619D01*
X77252380Y-81542857D01*
X77252380Y-81590476D01*
X77300000Y-81685714D01*
X77347619Y-81733333D01*
X77442857Y-81780952D01*
X77633333Y-81780952D01*
X77728571Y-81828571D01*
X77776190Y-81876190D01*
X77823809Y-81971428D01*
X77823809Y-82161904D01*
X77776190Y-82257142D01*
X77728571Y-82304761D01*
X77633333Y-82352380D01*
X77442857Y-82352380D01*
X77347619Y-82304761D01*
X77300000Y-82257142D01*
X77252380Y-82161904D01*
X77252380Y-81971428D01*
X77300000Y-81876190D01*
X77347619Y-81828571D01*
X77442857Y-81780952D01*
X76061904Y-82352380D02*
X76061904Y-81352380D01*
X75728571Y-82066666D01*
X75395238Y-81352380D01*
X75395238Y-82352380D01*
X74919047Y-82352380D02*
X74919047Y-81352380D01*
X74919047Y-81828571D02*
X74347619Y-81828571D01*
X74347619Y-82352380D02*
X74347619Y-81352380D01*
X73966666Y-81685714D02*
X73442857Y-81685714D01*
X73966666Y-82352380D01*
X73442857Y-82352380D01*
X81538095Y-80452380D02*
X82109523Y-80452380D01*
X81823809Y-80452380D02*
X81823809Y-79452380D01*
X81919047Y-79595238D01*
X82014285Y-79690476D01*
X82109523Y-79738095D01*
X81157142Y-79547619D02*
X81109523Y-79500000D01*
X81014285Y-79452380D01*
X80776190Y-79452380D01*
X80680952Y-79500000D01*
X80633333Y-79547619D01*
X80585714Y-79642857D01*
X80585714Y-79738095D01*
X80633333Y-79880952D01*
X81204761Y-80452380D01*
X80585714Y-80452380D01*
X80157142Y-80357142D02*
X80109523Y-80404761D01*
X80157142Y-80452380D01*
X80204761Y-80404761D01*
X80157142Y-80357142D01*
X80157142Y-80452380D01*
X79490476Y-79452380D02*
X79395238Y-79452380D01*
X79300000Y-79500000D01*
X79252380Y-79547619D01*
X79204761Y-79642857D01*
X79157142Y-79833333D01*
X79157142Y-80071428D01*
X79204761Y-80261904D01*
X79252380Y-80357142D01*
X79300000Y-80404761D01*
X79395238Y-80452380D01*
X79490476Y-80452380D01*
X79585714Y-80404761D01*
X79633333Y-80357142D01*
X79680952Y-80261904D01*
X79728571Y-80071428D01*
X79728571Y-79833333D01*
X79680952Y-79642857D01*
X79633333Y-79547619D01*
X79585714Y-79500000D01*
X79490476Y-79452380D01*
X78538095Y-79452380D02*
X78442857Y-79452380D01*
X78347619Y-79500000D01*
X78300000Y-79547619D01*
X78252380Y-79642857D01*
X78204761Y-79833333D01*
X78204761Y-80071428D01*
X78252380Y-80261904D01*
X78300000Y-80357142D01*
X78347619Y-80404761D01*
X78442857Y-80452380D01*
X78538095Y-80452380D01*
X78633333Y-80404761D01*
X78680952Y-80357142D01*
X78728571Y-80261904D01*
X78776190Y-80071428D01*
X78776190Y-79833333D01*
X78728571Y-79642857D01*
X78680952Y-79547619D01*
X78633333Y-79500000D01*
X78538095Y-79452380D01*
X77585714Y-79452380D02*
X77490476Y-79452380D01*
X77395238Y-79500000D01*
X77347619Y-79547619D01*
X77300000Y-79642857D01*
X77252380Y-79833333D01*
X77252380Y-80071428D01*
X77300000Y-80261904D01*
X77347619Y-80357142D01*
X77395238Y-80404761D01*
X77490476Y-80452380D01*
X77585714Y-80452380D01*
X77680952Y-80404761D01*
X77728571Y-80357142D01*
X77776190Y-80261904D01*
X77823809Y-80071428D01*
X77823809Y-79833333D01*
X77776190Y-79642857D01*
X77728571Y-79547619D01*
X77680952Y-79500000D01*
X77585714Y-79452380D01*
X76061904Y-80452380D02*
X76061904Y-79452380D01*
X75728571Y-80166666D01*
X75395238Y-79452380D01*
X75395238Y-80452380D01*
X74919047Y-80452380D02*
X74919047Y-79452380D01*
X74919047Y-79928571D02*
X74347619Y-79928571D01*
X74347619Y-80452380D02*
X74347619Y-79452380D01*
X73966666Y-79785714D02*
X73442857Y-79785714D01*
X73966666Y-80452380D01*
X73442857Y-80452380D01*
X82528571Y-77352380D02*
X81957142Y-77352380D01*
X82242857Y-78352380D02*
X82242857Y-77352380D01*
X81052380Y-78257142D02*
X81100000Y-78304761D01*
X81242857Y-78352380D01*
X81338095Y-78352380D01*
X81480952Y-78304761D01*
X81576190Y-78209523D01*
X81623809Y-78114285D01*
X81671428Y-77923809D01*
X81671428Y-77780952D01*
X81623809Y-77590476D01*
X81576190Y-77495238D01*
X81480952Y-77400000D01*
X81338095Y-77352380D01*
X81242857Y-77352380D01*
X81100000Y-77400000D01*
X81052380Y-77447619D01*
X80719047Y-77352380D02*
X80052380Y-78352380D01*
X80052380Y-77352380D02*
X80719047Y-78352380D01*
X79480952Y-77352380D02*
X79290476Y-77352380D01*
X79195238Y-77400000D01*
X79100000Y-77495238D01*
X79052380Y-77685714D01*
X79052380Y-78019047D01*
X79100000Y-78209523D01*
X79195238Y-78304761D01*
X79290476Y-78352380D01*
X79480952Y-78352380D01*
X79576190Y-78304761D01*
X79671428Y-78209523D01*
X79719047Y-78019047D01*
X79719047Y-77685714D01*
X79671428Y-77495238D01*
X79576190Y-77400000D01*
X79480952Y-77352380D01*
X77528571Y-77828571D02*
X77861904Y-77828571D01*
X77861904Y-78352380D02*
X77861904Y-77352380D01*
X77385714Y-77352380D01*
X77004761Y-78352380D02*
X77004761Y-77685714D01*
X77004761Y-77876190D02*
X76957142Y-77780952D01*
X76909523Y-77733333D01*
X76814285Y-77685714D01*
X76719047Y-77685714D01*
X76004761Y-78304761D02*
X76100000Y-78352380D01*
X76290476Y-78352380D01*
X76385714Y-78304761D01*
X76433333Y-78209523D01*
X76433333Y-77828571D01*
X76385714Y-77733333D01*
X76290476Y-77685714D01*
X76100000Y-77685714D01*
X76004761Y-77733333D01*
X75957142Y-77828571D01*
X75957142Y-77923809D01*
X76433333Y-78019047D01*
X75100000Y-77685714D02*
X75100000Y-78685714D01*
X75100000Y-78304761D02*
X75195238Y-78352380D01*
X75385714Y-78352380D01*
X75480952Y-78304761D01*
X75528571Y-78257142D01*
X75576190Y-78161904D01*
X75576190Y-77876190D01*
X75528571Y-77780952D01*
X75480952Y-77733333D01*
X75385714Y-77685714D01*
X75195238Y-77685714D01*
X75100000Y-77733333D01*
X74195238Y-77685714D02*
X74195238Y-78352380D01*
X74623809Y-77685714D02*
X74623809Y-78209523D01*
X74576190Y-78304761D01*
X74480952Y-78352380D01*
X74338095Y-78352380D01*
X74242857Y-78304761D01*
X74195238Y-78257142D01*
X73338095Y-78304761D02*
X73433333Y-78352380D01*
X73623809Y-78352380D01*
X73719047Y-78304761D01*
X73766666Y-78209523D01*
X73766666Y-77828571D01*
X73719047Y-77733333D01*
X73623809Y-77685714D01*
X73433333Y-77685714D01*
X73338095Y-77733333D01*
X73290476Y-77828571D01*
X73290476Y-77923809D01*
X73766666Y-78019047D01*
X72861904Y-77685714D02*
X72861904Y-78352380D01*
X72861904Y-77780952D02*
X72814285Y-77733333D01*
X72719047Y-77685714D01*
X72576190Y-77685714D01*
X72480952Y-77733333D01*
X72433333Y-77828571D01*
X72433333Y-78352380D01*
X71528571Y-78304761D02*
X71623809Y-78352380D01*
X71814285Y-78352380D01*
X71909523Y-78304761D01*
X71957142Y-78257142D01*
X72004761Y-78161904D01*
X72004761Y-77876190D01*
X71957142Y-77780952D01*
X71909523Y-77733333D01*
X71814285Y-77685714D01*
X71623809Y-77685714D01*
X71528571Y-77733333D01*
X71195238Y-77685714D02*
X70957142Y-78352380D01*
X70719047Y-77685714D02*
X70957142Y-78352380D01*
X71052380Y-78590476D01*
X71100000Y-78638095D01*
X71195238Y-78685714D01*
G36*
X21621140Y-114896700D02*
G01*
X21704960Y-114919560D01*
X21781160Y-114955120D01*
X21847200Y-115005920D01*
X21870060Y-115031320D01*
X21895460Y-115069420D01*
X21918320Y-115110060D01*
X21941180Y-115153240D01*
X21956420Y-115188800D01*
X21961500Y-115211660D01*
X21964040Y-115239600D01*
X21979280Y-115257380D01*
X22009760Y-115262460D01*
X22045320Y-115262460D01*
X21948800Y-115358980D01*
X21849740Y-115455500D01*
X21656700Y-115262460D01*
X21692260Y-115262460D01*
X21699880Y-115259920D01*
X21722740Y-115257380D01*
X21727820Y-115247220D01*
X21725280Y-115226900D01*
X21710040Y-115193880D01*
X21684640Y-115155780D01*
X21638920Y-115122760D01*
X21585580Y-115102440D01*
X21524620Y-115094820D01*
X21461120Y-115099900D01*
X21415400Y-115120220D01*
X21369680Y-115153240D01*
X21336660Y-115201500D01*
X21334120Y-115206580D01*
X21313800Y-115265000D01*
X21298560Y-115336120D01*
X21296020Y-115409780D01*
X21301100Y-115480900D01*
X21321420Y-115562180D01*
X21351900Y-115628220D01*
X21392540Y-115676480D01*
X21443340Y-115709500D01*
X21504300Y-115724740D01*
X21572880Y-115722200D01*
X21595740Y-115717120D01*
X21628760Y-115709500D01*
X21649080Y-115701880D01*
X21654160Y-115699340D01*
X21684640Y-115671400D01*
X21712580Y-115633300D01*
X21725280Y-115592660D01*
X21732900Y-115552020D01*
X21981820Y-115552020D01*
X21974200Y-115579960D01*
X21958960Y-115630760D01*
X21923400Y-115719660D01*
X21870060Y-115793320D01*
X21809100Y-115851740D01*
X21732900Y-115894920D01*
X21649080Y-115917780D01*
X21644000Y-115917780D01*
X21544940Y-115927940D01*
X21448420Y-115917780D01*
X21354440Y-115892380D01*
X21270620Y-115849200D01*
X21194420Y-115785700D01*
X21189340Y-115783160D01*
X21158860Y-115745060D01*
X21128380Y-115704420D01*
X21108060Y-115671400D01*
X21075040Y-115585040D01*
X21054720Y-115491060D01*
X21049640Y-115394540D01*
X21059800Y-115300560D01*
X21082660Y-115211660D01*
X21118220Y-115127840D01*
X21166480Y-115054180D01*
X21227440Y-114993220D01*
X21298560Y-114947500D01*
X21351900Y-114924640D01*
X21443340Y-114899240D01*
X21532240Y-114889080D01*
X21621140Y-114896700D01*
G37*
D13*
X21621140Y-114896700D02*
X21704960Y-114919560D01*
X21781160Y-114955120D01*
X21847200Y-115005920D01*
X21870060Y-115031320D01*
X21895460Y-115069420D01*
X21918320Y-115110060D01*
X21941180Y-115153240D01*
X21956420Y-115188800D01*
X21961500Y-115211660D01*
X21964040Y-115239600D01*
X21979280Y-115257380D01*
X22009760Y-115262460D01*
X22045320Y-115262460D01*
X21948800Y-115358980D01*
X21849740Y-115455500D01*
X21656700Y-115262460D01*
X21692260Y-115262460D01*
X21699880Y-115259920D01*
X21722740Y-115257380D01*
X21727820Y-115247220D01*
X21725280Y-115226900D01*
X21710040Y-115193880D01*
X21684640Y-115155780D01*
X21638920Y-115122760D01*
X21585580Y-115102440D01*
X21524620Y-115094820D01*
X21461120Y-115099900D01*
X21415400Y-115120220D01*
X21369680Y-115153240D01*
X21336660Y-115201500D01*
X21334120Y-115206580D01*
X21313800Y-115265000D01*
X21298560Y-115336120D01*
X21296020Y-115409780D01*
X21301100Y-115480900D01*
X21321420Y-115562180D01*
X21351900Y-115628220D01*
X21392540Y-115676480D01*
X21443340Y-115709500D01*
X21504300Y-115724740D01*
X21572880Y-115722200D01*
X21595740Y-115717120D01*
X21628760Y-115709500D01*
X21649080Y-115701880D01*
X21654160Y-115699340D01*
X21684640Y-115671400D01*
X21712580Y-115633300D01*
X21725280Y-115592660D01*
X21732900Y-115552020D01*
X21981820Y-115552020D01*
X21974200Y-115579960D01*
X21958960Y-115630760D01*
X21923400Y-115719660D01*
X21870060Y-115793320D01*
X21809100Y-115851740D01*
X21732900Y-115894920D01*
X21649080Y-115917780D01*
X21644000Y-115917780D01*
X21544940Y-115927940D01*
X21448420Y-115917780D01*
X21354440Y-115892380D01*
X21270620Y-115849200D01*
X21194420Y-115785700D01*
X21189340Y-115783160D01*
X21158860Y-115745060D01*
X21128380Y-115704420D01*
X21108060Y-115671400D01*
X21075040Y-115585040D01*
X21054720Y-115491060D01*
X21049640Y-115394540D01*
X21059800Y-115300560D01*
X21082660Y-115211660D01*
X21118220Y-115127840D01*
X21166480Y-115054180D01*
X21227440Y-114993220D01*
X21298560Y-114947500D01*
X21351900Y-114924640D01*
X21443340Y-114899240D01*
X21532240Y-114889080D01*
X21621140Y-114896700D01*
G36*
X25888340Y-114779860D02*
G01*
X25939140Y-114790020D01*
X25977240Y-114812880D01*
X26005180Y-114848440D01*
X26017880Y-114891620D01*
X26017880Y-114939880D01*
X25997560Y-114988140D01*
X25992480Y-114995760D01*
X25982320Y-115013540D01*
X25974700Y-115021160D01*
X25959460Y-115026240D01*
X25934060Y-115036400D01*
X25926440Y-115038940D01*
X25893420Y-115044020D01*
X25860400Y-115044020D01*
X25814680Y-115026240D01*
X25781660Y-114998300D01*
X25761340Y-114962740D01*
X25753720Y-114922100D01*
X25756260Y-114878920D01*
X25771500Y-114840820D01*
X25796900Y-114810340D01*
X25835000Y-114787480D01*
X25880720Y-114777320D01*
X25888340Y-114779860D01*
G37*
X25888340Y-114779860D02*
X25939140Y-114790020D01*
X25977240Y-114812880D01*
X26005180Y-114848440D01*
X26017880Y-114891620D01*
X26017880Y-114939880D01*
X25997560Y-114988140D01*
X25992480Y-114995760D01*
X25982320Y-115013540D01*
X25974700Y-115021160D01*
X25959460Y-115026240D01*
X25934060Y-115036400D01*
X25926440Y-115038940D01*
X25893420Y-115044020D01*
X25860400Y-115044020D01*
X25814680Y-115026240D01*
X25781660Y-114998300D01*
X25761340Y-114962740D01*
X25753720Y-114922100D01*
X25756260Y-114878920D01*
X25771500Y-114840820D01*
X25796900Y-114810340D01*
X25835000Y-114787480D01*
X25880720Y-114777320D01*
X25888340Y-114779860D01*
G36*
X26025500Y-115102440D02*
G01*
X26063600Y-115102440D01*
X26091540Y-115104980D01*
X26109320Y-115107520D01*
X26119480Y-115110060D01*
X26127100Y-115115140D01*
X26132180Y-115122760D01*
X26134720Y-115125300D01*
X26139800Y-115138000D01*
X26142340Y-115155780D01*
X26144880Y-115183720D01*
X26147420Y-115221820D01*
X26147420Y-115503760D01*
X26144880Y-115531700D01*
X26139800Y-115546940D01*
X26137260Y-115552020D01*
X26081380Y-115552020D01*
X26038200Y-115549480D01*
X26038200Y-116019380D01*
X25738480Y-116019380D01*
X25733400Y-115557100D01*
X25680060Y-115552020D01*
X25629260Y-115549480D01*
X25626720Y-115371680D01*
X25626720Y-115155780D01*
X25629260Y-115138000D01*
X25634340Y-115125300D01*
X25647040Y-115115140D01*
X25669900Y-115107520D01*
X25702920Y-115104980D01*
X25748640Y-115102440D01*
X25809600Y-115102440D01*
X25888340Y-115099900D01*
X25972160Y-115099900D01*
X26025500Y-115102440D01*
G37*
X26025500Y-115102440D02*
X26063600Y-115102440D01*
X26091540Y-115104980D01*
X26109320Y-115107520D01*
X26119480Y-115110060D01*
X26127100Y-115115140D01*
X26132180Y-115122760D01*
X26134720Y-115125300D01*
X26139800Y-115138000D01*
X26142340Y-115155780D01*
X26144880Y-115183720D01*
X26147420Y-115221820D01*
X26147420Y-115503760D01*
X26144880Y-115531700D01*
X26139800Y-115546940D01*
X26137260Y-115552020D01*
X26081380Y-115552020D01*
X26038200Y-115549480D01*
X26038200Y-116019380D01*
X25738480Y-116019380D01*
X25733400Y-115557100D01*
X25680060Y-115552020D01*
X25629260Y-115549480D01*
X25626720Y-115371680D01*
X25626720Y-115155780D01*
X25629260Y-115138000D01*
X25634340Y-115125300D01*
X25647040Y-115115140D01*
X25669900Y-115107520D01*
X25702920Y-115104980D01*
X25748640Y-115102440D01*
X25809600Y-115102440D01*
X25888340Y-115099900D01*
X25972160Y-115099900D01*
X26025500Y-115102440D01*
G36*
X28138780Y-115381840D02*
G01*
X28214980Y-115402160D01*
X28253080Y-115419940D01*
X28316580Y-115463120D01*
X28367380Y-115521540D01*
X28408020Y-115592660D01*
X28433420Y-115673940D01*
X28443580Y-115760300D01*
X28441040Y-115851740D01*
X28438500Y-115869520D01*
X28415640Y-115950800D01*
X28377540Y-116024460D01*
X28326740Y-116085420D01*
X28316580Y-116095580D01*
X28255620Y-116136220D01*
X28192120Y-116164160D01*
X28115920Y-116176860D01*
X28024480Y-116179400D01*
X27943200Y-116166700D01*
X27872080Y-116138760D01*
X27808580Y-116095580D01*
X27750160Y-116032080D01*
X27737460Y-116014300D01*
X27724760Y-115991440D01*
X27724760Y-115978740D01*
X27727300Y-115978740D01*
X27745080Y-115968580D01*
X27773020Y-115950800D01*
X27844140Y-115915240D01*
X27867000Y-115905080D01*
X27882240Y-115902540D01*
X27887320Y-115907620D01*
X27889860Y-115915240D01*
X27907640Y-115935560D01*
X27927960Y-115960960D01*
X27973680Y-115991440D01*
X28021940Y-116006680D01*
X28072740Y-116004140D01*
X28121000Y-115988900D01*
X28161640Y-115955880D01*
X28192120Y-115910160D01*
X28202280Y-115884760D01*
X28212440Y-115823800D01*
X28214980Y-115760300D01*
X28204820Y-115696800D01*
X28189580Y-115646000D01*
X28174340Y-115620600D01*
X28138780Y-115579960D01*
X28095600Y-115557100D01*
X28039720Y-115552020D01*
X28001620Y-115552020D01*
X27983840Y-115559640D01*
X27963520Y-115574880D01*
X27938120Y-115600280D01*
X27889860Y-115651080D01*
X27806040Y-115610440D01*
X27755240Y-115585040D01*
X27737460Y-115572340D01*
X27727300Y-115562180D01*
X27727300Y-115554560D01*
X27734920Y-115541860D01*
X27742540Y-115526620D01*
X27770480Y-115493600D01*
X27808580Y-115460580D01*
X27846680Y-115432640D01*
X27882240Y-115409780D01*
X27892400Y-115407240D01*
X27968600Y-115384380D01*
X28054960Y-115376760D01*
X28138780Y-115381840D01*
G37*
X28138780Y-115381840D02*
X28214980Y-115402160D01*
X28253080Y-115419940D01*
X28316580Y-115463120D01*
X28367380Y-115521540D01*
X28408020Y-115592660D01*
X28433420Y-115673940D01*
X28443580Y-115760300D01*
X28441040Y-115851740D01*
X28438500Y-115869520D01*
X28415640Y-115950800D01*
X28377540Y-116024460D01*
X28326740Y-116085420D01*
X28316580Y-116095580D01*
X28255620Y-116136220D01*
X28192120Y-116164160D01*
X28115920Y-116176860D01*
X28024480Y-116179400D01*
X27943200Y-116166700D01*
X27872080Y-116138760D01*
X27808580Y-116095580D01*
X27750160Y-116032080D01*
X27737460Y-116014300D01*
X27724760Y-115991440D01*
X27724760Y-115978740D01*
X27727300Y-115978740D01*
X27745080Y-115968580D01*
X27773020Y-115950800D01*
X27844140Y-115915240D01*
X27867000Y-115905080D01*
X27882240Y-115902540D01*
X27887320Y-115907620D01*
X27889860Y-115915240D01*
X27907640Y-115935560D01*
X27927960Y-115960960D01*
X27973680Y-115991440D01*
X28021940Y-116006680D01*
X28072740Y-116004140D01*
X28121000Y-115988900D01*
X28161640Y-115955880D01*
X28192120Y-115910160D01*
X28202280Y-115884760D01*
X28212440Y-115823800D01*
X28214980Y-115760300D01*
X28204820Y-115696800D01*
X28189580Y-115646000D01*
X28174340Y-115620600D01*
X28138780Y-115579960D01*
X28095600Y-115557100D01*
X28039720Y-115552020D01*
X28001620Y-115552020D01*
X27983840Y-115559640D01*
X27963520Y-115574880D01*
X27938120Y-115600280D01*
X27889860Y-115651080D01*
X27806040Y-115610440D01*
X27755240Y-115585040D01*
X27737460Y-115572340D01*
X27727300Y-115562180D01*
X27727300Y-115554560D01*
X27734920Y-115541860D01*
X27742540Y-115526620D01*
X27770480Y-115493600D01*
X27808580Y-115460580D01*
X27846680Y-115432640D01*
X27882240Y-115409780D01*
X27892400Y-115407240D01*
X27968600Y-115384380D01*
X28054960Y-115376760D01*
X28138780Y-115381840D01*
G36*
X28877920Y-115379300D02*
G01*
X28959200Y-115402160D01*
X29032860Y-115440260D01*
X29096360Y-115496140D01*
X29114140Y-115516460D01*
X29157320Y-115582500D01*
X29182720Y-115656160D01*
X29195420Y-115742520D01*
X29197960Y-115767920D01*
X29192880Y-115864440D01*
X29172560Y-115945720D01*
X29137000Y-116019380D01*
X29086200Y-116080340D01*
X29025240Y-116128600D01*
X28949040Y-116161620D01*
X28865220Y-116176860D01*
X28801720Y-116179400D01*
X28717900Y-116171780D01*
X28646780Y-116151460D01*
X28636620Y-116146380D01*
X28595980Y-116120980D01*
X28552800Y-116085420D01*
X28514700Y-116047320D01*
X28486760Y-116009220D01*
X28468980Y-115981280D01*
X28542640Y-115940640D01*
X28555340Y-115933020D01*
X28588360Y-115915240D01*
X28613760Y-115902540D01*
X28626460Y-115900000D01*
X28639160Y-115910160D01*
X28669640Y-115950800D01*
X28700120Y-115981280D01*
X28740760Y-115999060D01*
X28794100Y-116004140D01*
X28842360Y-115999060D01*
X28888080Y-115981280D01*
X28921100Y-115948260D01*
X28943960Y-115900000D01*
X28951580Y-115877140D01*
X28956660Y-115826340D01*
X28959200Y-115770460D01*
X28954120Y-115714580D01*
X28946500Y-115666320D01*
X28933800Y-115630760D01*
X28931260Y-115625680D01*
X28893160Y-115585040D01*
X28847440Y-115559640D01*
X28791560Y-115552020D01*
X28753460Y-115552020D01*
X28733140Y-115559640D01*
X28712820Y-115574880D01*
X28687420Y-115600280D01*
X28639160Y-115651080D01*
X28542640Y-115602820D01*
X28509620Y-115582500D01*
X28486760Y-115567260D01*
X28479140Y-115557100D01*
X28484220Y-115544400D01*
X28499460Y-115519000D01*
X28557880Y-115460580D01*
X28590900Y-115435180D01*
X28621380Y-115417400D01*
X28654400Y-115404700D01*
X28702660Y-115389460D01*
X28748380Y-115381840D01*
X28786480Y-115376760D01*
X28877920Y-115379300D01*
G37*
X28877920Y-115379300D02*
X28959200Y-115402160D01*
X29032860Y-115440260D01*
X29096360Y-115496140D01*
X29114140Y-115516460D01*
X29157320Y-115582500D01*
X29182720Y-115656160D01*
X29195420Y-115742520D01*
X29197960Y-115767920D01*
X29192880Y-115864440D01*
X29172560Y-115945720D01*
X29137000Y-116019380D01*
X29086200Y-116080340D01*
X29025240Y-116128600D01*
X28949040Y-116161620D01*
X28865220Y-116176860D01*
X28801720Y-116179400D01*
X28717900Y-116171780D01*
X28646780Y-116151460D01*
X28636620Y-116146380D01*
X28595980Y-116120980D01*
X28552800Y-116085420D01*
X28514700Y-116047320D01*
X28486760Y-116009220D01*
X28468980Y-115981280D01*
X28542640Y-115940640D01*
X28555340Y-115933020D01*
X28588360Y-115915240D01*
X28613760Y-115902540D01*
X28626460Y-115900000D01*
X28639160Y-115910160D01*
X28669640Y-115950800D01*
X28700120Y-115981280D01*
X28740760Y-115999060D01*
X28794100Y-116004140D01*
X28842360Y-115999060D01*
X28888080Y-115981280D01*
X28921100Y-115948260D01*
X28943960Y-115900000D01*
X28951580Y-115877140D01*
X28956660Y-115826340D01*
X28959200Y-115770460D01*
X28954120Y-115714580D01*
X28946500Y-115666320D01*
X28933800Y-115630760D01*
X28931260Y-115625680D01*
X28893160Y-115585040D01*
X28847440Y-115559640D01*
X28791560Y-115552020D01*
X28753460Y-115552020D01*
X28733140Y-115559640D01*
X28712820Y-115574880D01*
X28687420Y-115600280D01*
X28639160Y-115651080D01*
X28542640Y-115602820D01*
X28509620Y-115582500D01*
X28486760Y-115567260D01*
X28479140Y-115557100D01*
X28484220Y-115544400D01*
X28499460Y-115519000D01*
X28557880Y-115460580D01*
X28590900Y-115435180D01*
X28621380Y-115417400D01*
X28654400Y-115404700D01*
X28702660Y-115389460D01*
X28748380Y-115381840D01*
X28786480Y-115376760D01*
X28877920Y-115379300D01*
G36*
X20635620Y-115765380D02*
G01*
X20592440Y-115633300D01*
X20592440Y-115625680D01*
X20582280Y-115569800D01*
X20577200Y-115501220D01*
X20574660Y-115422480D01*
X20576298Y-115371680D01*
X20752460Y-115371680D01*
X20752460Y-115430100D01*
X20760080Y-115536780D01*
X20780400Y-115633300D01*
X20815960Y-115724740D01*
X20821040Y-115737440D01*
X20874380Y-115831420D01*
X20945500Y-115915240D01*
X21029320Y-115996520D01*
X21123300Y-116065100D01*
X21224900Y-116118440D01*
X21331580Y-116159080D01*
X21369680Y-116166700D01*
X21486520Y-116184480D01*
X21603360Y-116181940D01*
X21720200Y-116164160D01*
X21834500Y-116128600D01*
X21936100Y-116077800D01*
X22004680Y-116029540D01*
X22078340Y-115966040D01*
X22146920Y-115894920D01*
X22207880Y-115813640D01*
X22253600Y-115734900D01*
X22276460Y-115684100D01*
X22299320Y-115620600D01*
X22314560Y-115554560D01*
X22322180Y-115483440D01*
X22324720Y-115397080D01*
X22324720Y-115298020D01*
X22319640Y-115262460D01*
X22314560Y-115231980D01*
X22306940Y-115201500D01*
X22291700Y-115160860D01*
X22256140Y-115071960D01*
X22192640Y-114962740D01*
X22118980Y-114866220D01*
X22030080Y-114782400D01*
X21931020Y-114713820D01*
X21821800Y-114660480D01*
X21707500Y-114624920D01*
X21699880Y-114624920D01*
X21623680Y-114614760D01*
X21539860Y-114612220D01*
X21450960Y-114614760D01*
X21369680Y-114627460D01*
X21298560Y-114642700D01*
X21265540Y-114655400D01*
X21158860Y-114706200D01*
X21059800Y-114772240D01*
X20968360Y-114853520D01*
X20892160Y-114944960D01*
X20831200Y-115046560D01*
X20805800Y-115099900D01*
X20782940Y-115160860D01*
X20767700Y-115221820D01*
X20757540Y-115290400D01*
X20752460Y-115371680D01*
X20576298Y-115371680D01*
X20577200Y-115343740D01*
X20582280Y-115267540D01*
X20587360Y-115198960D01*
X20600060Y-115145620D01*
X20602600Y-115130380D01*
X20628000Y-115059260D01*
X20661020Y-114985600D01*
X20696580Y-114914480D01*
X20732140Y-114853520D01*
X20747380Y-114833200D01*
X20785480Y-114787480D01*
X20833740Y-114734140D01*
X20884540Y-114685880D01*
X20932800Y-114640160D01*
X20975980Y-114604600D01*
X21036940Y-114566500D01*
X21118220Y-114523320D01*
X21204580Y-114487760D01*
X21285860Y-114459820D01*
X21303640Y-114454740D01*
X21336660Y-114447120D01*
X21372220Y-114442040D01*
X21415400Y-114439500D01*
X21468740Y-114436960D01*
X21585580Y-114436960D01*
X21641460Y-114439500D01*
X21684640Y-114439500D01*
X21722740Y-114444580D01*
X21755760Y-114449660D01*
X21791320Y-114459820D01*
X21819260Y-114467440D01*
X21941180Y-114515700D01*
X22058020Y-114579200D01*
X22164700Y-114660480D01*
X22261220Y-114754460D01*
X22342500Y-114858600D01*
X22411080Y-114975440D01*
X22423780Y-115003380D01*
X22472040Y-115132920D01*
X22499980Y-115262460D01*
X22510140Y-115397080D01*
X22502520Y-115529160D01*
X22474580Y-115658700D01*
X22428860Y-115783160D01*
X22367900Y-115900000D01*
X22286620Y-116009220D01*
X22273920Y-116027000D01*
X22174860Y-116126060D01*
X22065640Y-116209880D01*
X21951340Y-116275920D01*
X21826880Y-116324180D01*
X21699880Y-116354660D01*
X21600820Y-116364820D01*
X21461120Y-116362280D01*
X21323960Y-116341960D01*
X21194420Y-116303860D01*
X21069960Y-116245440D01*
X20953120Y-116169240D01*
X20869300Y-116098120D01*
X20775320Y-115996520D01*
X20752460Y-115963500D01*
X20696580Y-115887300D01*
X20635620Y-115765380D01*
G37*
X20635620Y-115765380D02*
X20592440Y-115633300D01*
X20592440Y-115625680D01*
X20582280Y-115569800D01*
X20577200Y-115501220D01*
X20574660Y-115422480D01*
X20576298Y-115371680D01*
X20752460Y-115371680D01*
X20752460Y-115430100D01*
X20760080Y-115536780D01*
X20780400Y-115633300D01*
X20815960Y-115724740D01*
X20821040Y-115737440D01*
X20874380Y-115831420D01*
X20945500Y-115915240D01*
X21029320Y-115996520D01*
X21123300Y-116065100D01*
X21224900Y-116118440D01*
X21331580Y-116159080D01*
X21369680Y-116166700D01*
X21486520Y-116184480D01*
X21603360Y-116181940D01*
X21720200Y-116164160D01*
X21834500Y-116128600D01*
X21936100Y-116077800D01*
X22004680Y-116029540D01*
X22078340Y-115966040D01*
X22146920Y-115894920D01*
X22207880Y-115813640D01*
X22253600Y-115734900D01*
X22276460Y-115684100D01*
X22299320Y-115620600D01*
X22314560Y-115554560D01*
X22322180Y-115483440D01*
X22324720Y-115397080D01*
X22324720Y-115298020D01*
X22319640Y-115262460D01*
X22314560Y-115231980D01*
X22306940Y-115201500D01*
X22291700Y-115160860D01*
X22256140Y-115071960D01*
X22192640Y-114962740D01*
X22118980Y-114866220D01*
X22030080Y-114782400D01*
X21931020Y-114713820D01*
X21821800Y-114660480D01*
X21707500Y-114624920D01*
X21699880Y-114624920D01*
X21623680Y-114614760D01*
X21539860Y-114612220D01*
X21450960Y-114614760D01*
X21369680Y-114627460D01*
X21298560Y-114642700D01*
X21265540Y-114655400D01*
X21158860Y-114706200D01*
X21059800Y-114772240D01*
X20968360Y-114853520D01*
X20892160Y-114944960D01*
X20831200Y-115046560D01*
X20805800Y-115099900D01*
X20782940Y-115160860D01*
X20767700Y-115221820D01*
X20757540Y-115290400D01*
X20752460Y-115371680D01*
X20576298Y-115371680D01*
X20577200Y-115343740D01*
X20582280Y-115267540D01*
X20587360Y-115198960D01*
X20600060Y-115145620D01*
X20602600Y-115130380D01*
X20628000Y-115059260D01*
X20661020Y-114985600D01*
X20696580Y-114914480D01*
X20732140Y-114853520D01*
X20747380Y-114833200D01*
X20785480Y-114787480D01*
X20833740Y-114734140D01*
X20884540Y-114685880D01*
X20932800Y-114640160D01*
X20975980Y-114604600D01*
X21036940Y-114566500D01*
X21118220Y-114523320D01*
X21204580Y-114487760D01*
X21285860Y-114459820D01*
X21303640Y-114454740D01*
X21336660Y-114447120D01*
X21372220Y-114442040D01*
X21415400Y-114439500D01*
X21468740Y-114436960D01*
X21585580Y-114436960D01*
X21641460Y-114439500D01*
X21684640Y-114439500D01*
X21722740Y-114444580D01*
X21755760Y-114449660D01*
X21791320Y-114459820D01*
X21819260Y-114467440D01*
X21941180Y-114515700D01*
X22058020Y-114579200D01*
X22164700Y-114660480D01*
X22261220Y-114754460D01*
X22342500Y-114858600D01*
X22411080Y-114975440D01*
X22423780Y-115003380D01*
X22472040Y-115132920D01*
X22499980Y-115262460D01*
X22510140Y-115397080D01*
X22502520Y-115529160D01*
X22474580Y-115658700D01*
X22428860Y-115783160D01*
X22367900Y-115900000D01*
X22286620Y-116009220D01*
X22273920Y-116027000D01*
X22174860Y-116126060D01*
X22065640Y-116209880D01*
X21951340Y-116275920D01*
X21826880Y-116324180D01*
X21699880Y-116354660D01*
X21600820Y-116364820D01*
X21461120Y-116362280D01*
X21323960Y-116341960D01*
X21194420Y-116303860D01*
X21069960Y-116245440D01*
X20953120Y-116169240D01*
X20869300Y-116098120D01*
X20775320Y-115996520D01*
X20752460Y-115963500D01*
X20696580Y-115887300D01*
X20635620Y-115765380D01*
G36*
X22926700Y-115966040D02*
G01*
X22921620Y-115960960D01*
X22875900Y-115892380D01*
X22832720Y-115808560D01*
X22827640Y-115800940D01*
X22824375Y-115793320D01*
X23035920Y-115793320D01*
X23035920Y-115808560D01*
X23046080Y-115828880D01*
X23068940Y-115856820D01*
X23096880Y-115892380D01*
X23157840Y-115955880D01*
X23254360Y-116037160D01*
X23361040Y-116100660D01*
X23477880Y-116148920D01*
X23599800Y-116179400D01*
X23673460Y-116187020D01*
X23790300Y-116184480D01*
X23904600Y-116164160D01*
X24013820Y-116126060D01*
X24115420Y-116075260D01*
X24206860Y-116009220D01*
X24290680Y-115930480D01*
X24361800Y-115844120D01*
X24420220Y-115745060D01*
X24465940Y-115638380D01*
X24491340Y-115524080D01*
X24501500Y-115407240D01*
X24501500Y-115394540D01*
X24496420Y-115292940D01*
X24488800Y-115242140D01*
X24481180Y-115198960D01*
X24471020Y-115165940D01*
X24463400Y-115150700D01*
X24453240Y-115153240D01*
X24427840Y-115163400D01*
X24387200Y-115178640D01*
X24333860Y-115201500D01*
X24270360Y-115229440D01*
X24196700Y-115259920D01*
X24115420Y-115295480D01*
X24029060Y-115333580D01*
X23985880Y-115353900D01*
X23891900Y-115394540D01*
X23815700Y-115430100D01*
X23752200Y-115458040D01*
X23701400Y-115480900D01*
X23663300Y-115501220D01*
X23635360Y-115516460D01*
X23615040Y-115526620D01*
X23602340Y-115536780D01*
X23594720Y-115544400D01*
X23589640Y-115552020D01*
X23589640Y-115554560D01*
X23584560Y-115582500D01*
X23592180Y-115612980D01*
X23592180Y-115615520D01*
X23617580Y-115646000D01*
X23658220Y-115663780D01*
X23714100Y-115671400D01*
X23721720Y-115671400D01*
X23769980Y-115666320D01*
X23810620Y-115653620D01*
X23856340Y-115630760D01*
X23907140Y-115595200D01*
X23914760Y-115595200D01*
X23930000Y-115600280D01*
X23952860Y-115620600D01*
X23988420Y-115653620D01*
X24054460Y-115719660D01*
X24031600Y-115739980D01*
X24013820Y-115752680D01*
X23975720Y-115775540D01*
X23927460Y-115798400D01*
X23881740Y-115816180D01*
X23846180Y-115826340D01*
X23823320Y-115828880D01*
X23790300Y-115836500D01*
X23772520Y-115841580D01*
X23762360Y-115854280D01*
X23762360Y-115978740D01*
X23653140Y-115978740D01*
X23648060Y-115912700D01*
X23648060Y-115889840D01*
X23642980Y-115861900D01*
X23632820Y-115844120D01*
X23609960Y-115831420D01*
X23574400Y-115821260D01*
X23564240Y-115818720D01*
X23498200Y-115788240D01*
X23444860Y-115745060D01*
X23406760Y-115686640D01*
X23376280Y-115625680D01*
X23198480Y-115704420D01*
X23168000Y-115717120D01*
X23112120Y-115742520D01*
X23071480Y-115762840D01*
X23046080Y-115778080D01*
X23035920Y-115793320D01*
X22824375Y-115793320D01*
X22797160Y-115729820D01*
X22776840Y-115661240D01*
X22761600Y-115587580D01*
X22751440Y-115503760D01*
X22746360Y-115425020D01*
X22747653Y-115389460D01*
X22921620Y-115389460D01*
X22931780Y-115513920D01*
X22931780Y-115524080D01*
X22939400Y-115564720D01*
X22947020Y-115590120D01*
X22954640Y-115600280D01*
X22962260Y-115597740D01*
X22987660Y-115585040D01*
X23028300Y-115569800D01*
X23081640Y-115546940D01*
X23145140Y-115516460D01*
X23218800Y-115485980D01*
X23300080Y-115447880D01*
X23386440Y-115409780D01*
X23411840Y-115399620D01*
X23505820Y-115356440D01*
X23584560Y-115320880D01*
X23645520Y-115292940D01*
X23696320Y-115270080D01*
X23734420Y-115249760D01*
X23762360Y-115237060D01*
X23782680Y-115224360D01*
X23795380Y-115216740D01*
X23803000Y-115209120D01*
X23805540Y-115201500D01*
X23805540Y-115191340D01*
X23795380Y-115163400D01*
X23769980Y-115143080D01*
X23731880Y-115130380D01*
X23686160Y-115127840D01*
X23635360Y-115138000D01*
X23584560Y-115155780D01*
X23526140Y-115183720D01*
X23467720Y-115120220D01*
X23457560Y-115107520D01*
X23434700Y-115079580D01*
X23419460Y-115056720D01*
X23414380Y-115046560D01*
X23419460Y-115038940D01*
X23439780Y-115026240D01*
X23472800Y-115008460D01*
X23510900Y-114993220D01*
X23551540Y-114977980D01*
X23589640Y-114967820D01*
X23650600Y-114957660D01*
X23650600Y-114810340D01*
X23762360Y-114810340D01*
X23762360Y-114957660D01*
X23815700Y-114970360D01*
X23841100Y-114977980D01*
X23899520Y-115003380D01*
X23950320Y-115041480D01*
X23985880Y-115087200D01*
X24011280Y-115130380D01*
X24158600Y-115064340D01*
X24186540Y-115051640D01*
X24239880Y-115028780D01*
X24283060Y-115008460D01*
X24318620Y-114995760D01*
X24359260Y-114975440D01*
X24366880Y-114965280D01*
X24359260Y-114950040D01*
X24351640Y-114937340D01*
X24328780Y-114909400D01*
X24295760Y-114873840D01*
X24257660Y-114835740D01*
X24214480Y-114797640D01*
X24173840Y-114762080D01*
X24138280Y-114731600D01*
X24107800Y-114713820D01*
X24100180Y-114708740D01*
X24059540Y-114688420D01*
X24011280Y-114665560D01*
X23963020Y-114647780D01*
X23924920Y-114635080D01*
X23886820Y-114624920D01*
X23851260Y-114619840D01*
X23805540Y-114614760D01*
X23637900Y-114614760D01*
X23543920Y-114624920D01*
X23455020Y-114650320D01*
X23368660Y-114685880D01*
X23348340Y-114696040D01*
X23241660Y-114764620D01*
X23150220Y-114845900D01*
X23071480Y-114937340D01*
X23010520Y-115041480D01*
X22962260Y-115150700D01*
X22934320Y-115267540D01*
X22921620Y-115389460D01*
X22747653Y-115389460D01*
X22751440Y-115285320D01*
X22774300Y-115150700D01*
X22817480Y-115023700D01*
X22875900Y-114904320D01*
X22952100Y-114792560D01*
X23046080Y-114693500D01*
X23127360Y-114622380D01*
X23239120Y-114548720D01*
X23358500Y-114492840D01*
X23482960Y-114457280D01*
X23617580Y-114436960D01*
X23762360Y-114434420D01*
X23856340Y-114442040D01*
X23952860Y-114457280D01*
X24041760Y-114482680D01*
X24130660Y-114520780D01*
X24204320Y-114561420D01*
X24316080Y-114637620D01*
X24415140Y-114729060D01*
X24501500Y-114833200D01*
X24572620Y-114947500D01*
X24625960Y-115071960D01*
X24664060Y-115201500D01*
X24669140Y-115234520D01*
X24676760Y-115277700D01*
X24679300Y-115320880D01*
X24679300Y-115371680D01*
X24676760Y-115435180D01*
X24674220Y-115508840D01*
X24653900Y-115633300D01*
X24620880Y-115747600D01*
X24570080Y-115854280D01*
X24504040Y-115953340D01*
X24417680Y-116054940D01*
X24328780Y-116141300D01*
X24219560Y-116222580D01*
X24102720Y-116286080D01*
X23978260Y-116331800D01*
X23848720Y-116359740D01*
X23836020Y-116359740D01*
X23777600Y-116364820D01*
X23706480Y-116364820D01*
X23632820Y-116359740D01*
X23561700Y-116354660D01*
X23503280Y-116344500D01*
X23386440Y-116311480D01*
X23264520Y-116255600D01*
X23150220Y-116184480D01*
X23041000Y-116093040D01*
X22987660Y-116039700D01*
X22926700Y-115966040D01*
G37*
X22926700Y-115966040D02*
X22921620Y-115960960D01*
X22875900Y-115892380D01*
X22832720Y-115808560D01*
X22827640Y-115800940D01*
X22824375Y-115793320D01*
X23035920Y-115793320D01*
X23035920Y-115808560D01*
X23046080Y-115828880D01*
X23068940Y-115856820D01*
X23096880Y-115892380D01*
X23157840Y-115955880D01*
X23254360Y-116037160D01*
X23361040Y-116100660D01*
X23477880Y-116148920D01*
X23599800Y-116179400D01*
X23673460Y-116187020D01*
X23790300Y-116184480D01*
X23904600Y-116164160D01*
X24013820Y-116126060D01*
X24115420Y-116075260D01*
X24206860Y-116009220D01*
X24290680Y-115930480D01*
X24361800Y-115844120D01*
X24420220Y-115745060D01*
X24465940Y-115638380D01*
X24491340Y-115524080D01*
X24501500Y-115407240D01*
X24501500Y-115394540D01*
X24496420Y-115292940D01*
X24488800Y-115242140D01*
X24481180Y-115198960D01*
X24471020Y-115165940D01*
X24463400Y-115150700D01*
X24453240Y-115153240D01*
X24427840Y-115163400D01*
X24387200Y-115178640D01*
X24333860Y-115201500D01*
X24270360Y-115229440D01*
X24196700Y-115259920D01*
X24115420Y-115295480D01*
X24029060Y-115333580D01*
X23985880Y-115353900D01*
X23891900Y-115394540D01*
X23815700Y-115430100D01*
X23752200Y-115458040D01*
X23701400Y-115480900D01*
X23663300Y-115501220D01*
X23635360Y-115516460D01*
X23615040Y-115526620D01*
X23602340Y-115536780D01*
X23594720Y-115544400D01*
X23589640Y-115552020D01*
X23589640Y-115554560D01*
X23584560Y-115582500D01*
X23592180Y-115612980D01*
X23592180Y-115615520D01*
X23617580Y-115646000D01*
X23658220Y-115663780D01*
X23714100Y-115671400D01*
X23721720Y-115671400D01*
X23769980Y-115666320D01*
X23810620Y-115653620D01*
X23856340Y-115630760D01*
X23907140Y-115595200D01*
X23914760Y-115595200D01*
X23930000Y-115600280D01*
X23952860Y-115620600D01*
X23988420Y-115653620D01*
X24054460Y-115719660D01*
X24031600Y-115739980D01*
X24013820Y-115752680D01*
X23975720Y-115775540D01*
X23927460Y-115798400D01*
X23881740Y-115816180D01*
X23846180Y-115826340D01*
X23823320Y-115828880D01*
X23790300Y-115836500D01*
X23772520Y-115841580D01*
X23762360Y-115854280D01*
X23762360Y-115978740D01*
X23653140Y-115978740D01*
X23648060Y-115912700D01*
X23648060Y-115889840D01*
X23642980Y-115861900D01*
X23632820Y-115844120D01*
X23609960Y-115831420D01*
X23574400Y-115821260D01*
X23564240Y-115818720D01*
X23498200Y-115788240D01*
X23444860Y-115745060D01*
X23406760Y-115686640D01*
X23376280Y-115625680D01*
X23198480Y-115704420D01*
X23168000Y-115717120D01*
X23112120Y-115742520D01*
X23071480Y-115762840D01*
X23046080Y-115778080D01*
X23035920Y-115793320D01*
X22824375Y-115793320D01*
X22797160Y-115729820D01*
X22776840Y-115661240D01*
X22761600Y-115587580D01*
X22751440Y-115503760D01*
X22746360Y-115425020D01*
X22747653Y-115389460D01*
X22921620Y-115389460D01*
X22931780Y-115513920D01*
X22931780Y-115524080D01*
X22939400Y-115564720D01*
X22947020Y-115590120D01*
X22954640Y-115600280D01*
X22962260Y-115597740D01*
X22987660Y-115585040D01*
X23028300Y-115569800D01*
X23081640Y-115546940D01*
X23145140Y-115516460D01*
X23218800Y-115485980D01*
X23300080Y-115447880D01*
X23386440Y-115409780D01*
X23411840Y-115399620D01*
X23505820Y-115356440D01*
X23584560Y-115320880D01*
X23645520Y-115292940D01*
X23696320Y-115270080D01*
X23734420Y-115249760D01*
X23762360Y-115237060D01*
X23782680Y-115224360D01*
X23795380Y-115216740D01*
X23803000Y-115209120D01*
X23805540Y-115201500D01*
X23805540Y-115191340D01*
X23795380Y-115163400D01*
X23769980Y-115143080D01*
X23731880Y-115130380D01*
X23686160Y-115127840D01*
X23635360Y-115138000D01*
X23584560Y-115155780D01*
X23526140Y-115183720D01*
X23467720Y-115120220D01*
X23457560Y-115107520D01*
X23434700Y-115079580D01*
X23419460Y-115056720D01*
X23414380Y-115046560D01*
X23419460Y-115038940D01*
X23439780Y-115026240D01*
X23472800Y-115008460D01*
X23510900Y-114993220D01*
X23551540Y-114977980D01*
X23589640Y-114967820D01*
X23650600Y-114957660D01*
X23650600Y-114810340D01*
X23762360Y-114810340D01*
X23762360Y-114957660D01*
X23815700Y-114970360D01*
X23841100Y-114977980D01*
X23899520Y-115003380D01*
X23950320Y-115041480D01*
X23985880Y-115087200D01*
X24011280Y-115130380D01*
X24158600Y-115064340D01*
X24186540Y-115051640D01*
X24239880Y-115028780D01*
X24283060Y-115008460D01*
X24318620Y-114995760D01*
X24359260Y-114975440D01*
X24366880Y-114965280D01*
X24359260Y-114950040D01*
X24351640Y-114937340D01*
X24328780Y-114909400D01*
X24295760Y-114873840D01*
X24257660Y-114835740D01*
X24214480Y-114797640D01*
X24173840Y-114762080D01*
X24138280Y-114731600D01*
X24107800Y-114713820D01*
X24100180Y-114708740D01*
X24059540Y-114688420D01*
X24011280Y-114665560D01*
X23963020Y-114647780D01*
X23924920Y-114635080D01*
X23886820Y-114624920D01*
X23851260Y-114619840D01*
X23805540Y-114614760D01*
X23637900Y-114614760D01*
X23543920Y-114624920D01*
X23455020Y-114650320D01*
X23368660Y-114685880D01*
X23348340Y-114696040D01*
X23241660Y-114764620D01*
X23150220Y-114845900D01*
X23071480Y-114937340D01*
X23010520Y-115041480D01*
X22962260Y-115150700D01*
X22934320Y-115267540D01*
X22921620Y-115389460D01*
X22747653Y-115389460D01*
X22751440Y-115285320D01*
X22774300Y-115150700D01*
X22817480Y-115023700D01*
X22875900Y-114904320D01*
X22952100Y-114792560D01*
X23046080Y-114693500D01*
X23127360Y-114622380D01*
X23239120Y-114548720D01*
X23358500Y-114492840D01*
X23482960Y-114457280D01*
X23617580Y-114436960D01*
X23762360Y-114434420D01*
X23856340Y-114442040D01*
X23952860Y-114457280D01*
X24041760Y-114482680D01*
X24130660Y-114520780D01*
X24204320Y-114561420D01*
X24316080Y-114637620D01*
X24415140Y-114729060D01*
X24501500Y-114833200D01*
X24572620Y-114947500D01*
X24625960Y-115071960D01*
X24664060Y-115201500D01*
X24669140Y-115234520D01*
X24676760Y-115277700D01*
X24679300Y-115320880D01*
X24679300Y-115371680D01*
X24676760Y-115435180D01*
X24674220Y-115508840D01*
X24653900Y-115633300D01*
X24620880Y-115747600D01*
X24570080Y-115854280D01*
X24504040Y-115953340D01*
X24417680Y-116054940D01*
X24328780Y-116141300D01*
X24219560Y-116222580D01*
X24102720Y-116286080D01*
X23978260Y-116331800D01*
X23848720Y-116359740D01*
X23836020Y-116359740D01*
X23777600Y-116364820D01*
X23706480Y-116364820D01*
X23632820Y-116359740D01*
X23561700Y-116354660D01*
X23503280Y-116344500D01*
X23386440Y-116311480D01*
X23264520Y-116255600D01*
X23150220Y-116184480D01*
X23041000Y-116093040D01*
X22987660Y-116039700D01*
X22926700Y-115966040D01*
G36*
X25050140Y-115892380D02*
G01*
X25009500Y-115813640D01*
X24973940Y-115732360D01*
X24951080Y-115656160D01*
X24946000Y-115633300D01*
X24933300Y-115554560D01*
X24925680Y-115468200D01*
X24923846Y-115402160D01*
X25100940Y-115402160D01*
X25106020Y-115496140D01*
X25118720Y-115587580D01*
X25144120Y-115671400D01*
X25182220Y-115760300D01*
X25194920Y-115783160D01*
X25215240Y-115821260D01*
X25240640Y-115856820D01*
X25273660Y-115894920D01*
X25319380Y-115938100D01*
X25319380Y-115940640D01*
X25360020Y-115978740D01*
X25403200Y-116019380D01*
X25443840Y-116049860D01*
X25476860Y-116072720D01*
X25499720Y-116085420D01*
X25586080Y-116126060D01*
X25680060Y-116159080D01*
X25771500Y-116179400D01*
X25873100Y-116187020D01*
X25995020Y-116179400D01*
X26114400Y-116154000D01*
X26226160Y-116108280D01*
X26332840Y-116044780D01*
X26386180Y-116001600D01*
X26477620Y-115915240D01*
X26551280Y-115816180D01*
X26612240Y-115706960D01*
X26655420Y-115590120D01*
X26660500Y-115564720D01*
X26670660Y-115496140D01*
X26673200Y-115417400D01*
X26670660Y-115338660D01*
X26663040Y-115262460D01*
X26650340Y-115198960D01*
X26630020Y-115135460D01*
X26576680Y-115021160D01*
X26508100Y-114919560D01*
X26426820Y-114828120D01*
X26330300Y-114749380D01*
X26223620Y-114685880D01*
X26109320Y-114640160D01*
X26094080Y-114635080D01*
X26061060Y-114627460D01*
X26030580Y-114622380D01*
X25992480Y-114617300D01*
X25801980Y-114617300D01*
X25758800Y-114619840D01*
X25723240Y-114622380D01*
X25692760Y-114630000D01*
X25659740Y-114640160D01*
X25596240Y-114663020D01*
X25489560Y-114716360D01*
X25393040Y-114784940D01*
X25304140Y-114866220D01*
X25230480Y-114957660D01*
X25174600Y-115056720D01*
X25151740Y-115104980D01*
X25123800Y-115198960D01*
X25106020Y-115292940D01*
X25100940Y-115402160D01*
X24923846Y-115402160D01*
X24923140Y-115376760D01*
X24925680Y-115292940D01*
X24935840Y-115216740D01*
X24935840Y-115211660D01*
X24971400Y-115079580D01*
X25024740Y-114955120D01*
X25095860Y-114840820D01*
X25179680Y-114736680D01*
X25273660Y-114645240D01*
X25382880Y-114566500D01*
X25504800Y-114505540D01*
X25634340Y-114459820D01*
X25667360Y-114452200D01*
X25733400Y-114442040D01*
X25812140Y-114436960D01*
X25895960Y-114434420D01*
X25977240Y-114436960D01*
X26050900Y-114444580D01*
X26111860Y-114454740D01*
X26137260Y-114459820D01*
X26261720Y-114503000D01*
X26378560Y-114563960D01*
X26487780Y-114640160D01*
X26584300Y-114729060D01*
X26670660Y-114830660D01*
X26741780Y-114944960D01*
X26797660Y-115064340D01*
X26835760Y-115193880D01*
X26843380Y-115239600D01*
X26848460Y-115313260D01*
X26851000Y-115407240D01*
X26851000Y-115465660D01*
X26848460Y-115513920D01*
X26843380Y-115557100D01*
X26838300Y-115597740D01*
X26825600Y-115640920D01*
X26795120Y-115739980D01*
X26736700Y-115861900D01*
X26660500Y-115973660D01*
X26569060Y-116080340D01*
X26520800Y-116126060D01*
X26409040Y-116209880D01*
X26289660Y-116278460D01*
X26165200Y-116326720D01*
X26033120Y-116357200D01*
X25992480Y-116362280D01*
X25926440Y-116364820D01*
X25852780Y-116362280D01*
X25779120Y-116357200D01*
X25708000Y-116349580D01*
X25649580Y-116339420D01*
X25624180Y-116331800D01*
X25507340Y-116291160D01*
X25393040Y-116230200D01*
X25283820Y-116156540D01*
X25189840Y-116070180D01*
X25103480Y-115976200D01*
X25100940Y-115968580D01*
X25093320Y-115958420D01*
X25050140Y-115892380D01*
G37*
X25050140Y-115892380D02*
X25009500Y-115813640D01*
X24973940Y-115732360D01*
X24951080Y-115656160D01*
X24946000Y-115633300D01*
X24933300Y-115554560D01*
X24925680Y-115468200D01*
X24923846Y-115402160D01*
X25100940Y-115402160D01*
X25106020Y-115496140D01*
X25118720Y-115587580D01*
X25144120Y-115671400D01*
X25182220Y-115760300D01*
X25194920Y-115783160D01*
X25215240Y-115821260D01*
X25240640Y-115856820D01*
X25273660Y-115894920D01*
X25319380Y-115938100D01*
X25319380Y-115940640D01*
X25360020Y-115978740D01*
X25403200Y-116019380D01*
X25443840Y-116049860D01*
X25476860Y-116072720D01*
X25499720Y-116085420D01*
X25586080Y-116126060D01*
X25680060Y-116159080D01*
X25771500Y-116179400D01*
X25873100Y-116187020D01*
X25995020Y-116179400D01*
X26114400Y-116154000D01*
X26226160Y-116108280D01*
X26332840Y-116044780D01*
X26386180Y-116001600D01*
X26477620Y-115915240D01*
X26551280Y-115816180D01*
X26612240Y-115706960D01*
X26655420Y-115590120D01*
X26660500Y-115564720D01*
X26670660Y-115496140D01*
X26673200Y-115417400D01*
X26670660Y-115338660D01*
X26663040Y-115262460D01*
X26650340Y-115198960D01*
X26630020Y-115135460D01*
X26576680Y-115021160D01*
X26508100Y-114919560D01*
X26426820Y-114828120D01*
X26330300Y-114749380D01*
X26223620Y-114685880D01*
X26109320Y-114640160D01*
X26094080Y-114635080D01*
X26061060Y-114627460D01*
X26030580Y-114622380D01*
X25992480Y-114617300D01*
X25801980Y-114617300D01*
X25758800Y-114619840D01*
X25723240Y-114622380D01*
X25692760Y-114630000D01*
X25659740Y-114640160D01*
X25596240Y-114663020D01*
X25489560Y-114716360D01*
X25393040Y-114784940D01*
X25304140Y-114866220D01*
X25230480Y-114957660D01*
X25174600Y-115056720D01*
X25151740Y-115104980D01*
X25123800Y-115198960D01*
X25106020Y-115292940D01*
X25100940Y-115402160D01*
X24923846Y-115402160D01*
X24923140Y-115376760D01*
X24925680Y-115292940D01*
X24935840Y-115216740D01*
X24935840Y-115211660D01*
X24971400Y-115079580D01*
X25024740Y-114955120D01*
X25095860Y-114840820D01*
X25179680Y-114736680D01*
X25273660Y-114645240D01*
X25382880Y-114566500D01*
X25504800Y-114505540D01*
X25634340Y-114459820D01*
X25667360Y-114452200D01*
X25733400Y-114442040D01*
X25812140Y-114436960D01*
X25895960Y-114434420D01*
X25977240Y-114436960D01*
X26050900Y-114444580D01*
X26111860Y-114454740D01*
X26137260Y-114459820D01*
X26261720Y-114503000D01*
X26378560Y-114563960D01*
X26487780Y-114640160D01*
X26584300Y-114729060D01*
X26670660Y-114830660D01*
X26741780Y-114944960D01*
X26797660Y-115064340D01*
X26835760Y-115193880D01*
X26843380Y-115239600D01*
X26848460Y-115313260D01*
X26851000Y-115407240D01*
X26851000Y-115465660D01*
X26848460Y-115513920D01*
X26843380Y-115557100D01*
X26838300Y-115597740D01*
X26825600Y-115640920D01*
X26795120Y-115739980D01*
X26736700Y-115861900D01*
X26660500Y-115973660D01*
X26569060Y-116080340D01*
X26520800Y-116126060D01*
X26409040Y-116209880D01*
X26289660Y-116278460D01*
X26165200Y-116326720D01*
X26033120Y-116357200D01*
X25992480Y-116362280D01*
X25926440Y-116364820D01*
X25852780Y-116362280D01*
X25779120Y-116357200D01*
X25708000Y-116349580D01*
X25649580Y-116339420D01*
X25624180Y-116331800D01*
X25507340Y-116291160D01*
X25393040Y-116230200D01*
X25283820Y-116156540D01*
X25189840Y-116070180D01*
X25103480Y-115976200D01*
X25100940Y-115968580D01*
X25093320Y-115958420D01*
X25050140Y-115892380D01*
G36*
X27310740Y-116413080D02*
G01*
X27247240Y-116283540D01*
X27229460Y-116232740D01*
X27204060Y-116159080D01*
X27186280Y-116087960D01*
X27173580Y-116011760D01*
X27165960Y-115927940D01*
X27160880Y-115833960D01*
X27160880Y-115762840D01*
X27392020Y-115762840D01*
X27397100Y-115902540D01*
X27422500Y-116044780D01*
X27468220Y-116187020D01*
X27483460Y-116220040D01*
X27541880Y-116329260D01*
X27615540Y-116433400D01*
X27704440Y-116529920D01*
X27806040Y-116616280D01*
X27915260Y-116692480D01*
X28032100Y-116753440D01*
X28151480Y-116799160D01*
X28273400Y-116827100D01*
X28405480Y-116839800D01*
X28552800Y-116839800D01*
X28689960Y-116819480D01*
X28822040Y-116778840D01*
X28949040Y-116720420D01*
X29068420Y-116644220D01*
X29185260Y-116547700D01*
X29284320Y-116441020D01*
X29368140Y-116321640D01*
X29436720Y-116197180D01*
X29484980Y-116067640D01*
X29515460Y-115930480D01*
X29525620Y-115793320D01*
X29518000Y-115651080D01*
X29487520Y-115506300D01*
X29467200Y-115437720D01*
X29413860Y-115315800D01*
X29345280Y-115198960D01*
X29261460Y-115089740D01*
X29167480Y-114990680D01*
X29060800Y-114901780D01*
X28946500Y-114830660D01*
X28865220Y-114792560D01*
X28738220Y-114749380D01*
X28606140Y-114723980D01*
X28468980Y-114713820D01*
X28331820Y-114718900D01*
X28197200Y-114741760D01*
X28070200Y-114782400D01*
X27950820Y-114838280D01*
X27943200Y-114840820D01*
X27821280Y-114922100D01*
X27712060Y-115016080D01*
X27618080Y-115120220D01*
X27539340Y-115234520D01*
X27475840Y-115358980D01*
X27430120Y-115488520D01*
X27402180Y-115623140D01*
X27392020Y-115762840D01*
X27160880Y-115762840D01*
X27160880Y-115679020D01*
X27165960Y-115605360D01*
X27173580Y-115536780D01*
X27186280Y-115470740D01*
X27206600Y-115402160D01*
X27216760Y-115364060D01*
X27272640Y-115221820D01*
X27346300Y-115084660D01*
X27437740Y-114960200D01*
X27539340Y-114845900D01*
X27656180Y-114744300D01*
X27783180Y-114657940D01*
X27917800Y-114586820D01*
X28062580Y-114530940D01*
X28214980Y-114495380D01*
X28230220Y-114490300D01*
X28301340Y-114482680D01*
X28385160Y-114480140D01*
X28471520Y-114477600D01*
X28557880Y-114480140D01*
X28639160Y-114485220D01*
X28705200Y-114492840D01*
X28796640Y-114513160D01*
X28941420Y-114561420D01*
X29078580Y-114627460D01*
X29210660Y-114711280D01*
X29330040Y-114807800D01*
X29439260Y-114919560D01*
X29535780Y-115044020D01*
X29617060Y-115178640D01*
X29655160Y-115254840D01*
X29700880Y-115379300D01*
X29733900Y-115503760D01*
X29754220Y-115638380D01*
X29759300Y-115780620D01*
X29756760Y-115861900D01*
X29741520Y-116014300D01*
X29708500Y-116161620D01*
X29657700Y-116298780D01*
X29589120Y-116430860D01*
X29500220Y-116555320D01*
X29393540Y-116677240D01*
X29391000Y-116679780D01*
X29269080Y-116794080D01*
X29142080Y-116888060D01*
X29010000Y-116961720D01*
X28872840Y-117020140D01*
X28728060Y-117058240D01*
X28575660Y-117078560D01*
X28540100Y-117081100D01*
X28499460Y-117083640D01*
X28461360Y-117083640D01*
X28418180Y-117081100D01*
X28367380Y-117078560D01*
X28303880Y-117073480D01*
X28237840Y-117065860D01*
X28098140Y-117035380D01*
X27963520Y-116987120D01*
X27831440Y-116923620D01*
X27704440Y-116844880D01*
X27587600Y-116753440D01*
X27483460Y-116649300D01*
X27392020Y-116537540D01*
X27389480Y-116535000D01*
X27310740Y-116413080D01*
G37*
X27310740Y-116413080D02*
X27247240Y-116283540D01*
X27229460Y-116232740D01*
X27204060Y-116159080D01*
X27186280Y-116087960D01*
X27173580Y-116011760D01*
X27165960Y-115927940D01*
X27160880Y-115833960D01*
X27160880Y-115762840D01*
X27392020Y-115762840D01*
X27397100Y-115902540D01*
X27422500Y-116044780D01*
X27468220Y-116187020D01*
X27483460Y-116220040D01*
X27541880Y-116329260D01*
X27615540Y-116433400D01*
X27704440Y-116529920D01*
X27806040Y-116616280D01*
X27915260Y-116692480D01*
X28032100Y-116753440D01*
X28151480Y-116799160D01*
X28273400Y-116827100D01*
X28405480Y-116839800D01*
X28552800Y-116839800D01*
X28689960Y-116819480D01*
X28822040Y-116778840D01*
X28949040Y-116720420D01*
X29068420Y-116644220D01*
X29185260Y-116547700D01*
X29284320Y-116441020D01*
X29368140Y-116321640D01*
X29436720Y-116197180D01*
X29484980Y-116067640D01*
X29515460Y-115930480D01*
X29525620Y-115793320D01*
X29518000Y-115651080D01*
X29487520Y-115506300D01*
X29467200Y-115437720D01*
X29413860Y-115315800D01*
X29345280Y-115198960D01*
X29261460Y-115089740D01*
X29167480Y-114990680D01*
X29060800Y-114901780D01*
X28946500Y-114830660D01*
X28865220Y-114792560D01*
X28738220Y-114749380D01*
X28606140Y-114723980D01*
X28468980Y-114713820D01*
X28331820Y-114718900D01*
X28197200Y-114741760D01*
X28070200Y-114782400D01*
X27950820Y-114838280D01*
X27943200Y-114840820D01*
X27821280Y-114922100D01*
X27712060Y-115016080D01*
X27618080Y-115120220D01*
X27539340Y-115234520D01*
X27475840Y-115358980D01*
X27430120Y-115488520D01*
X27402180Y-115623140D01*
X27392020Y-115762840D01*
X27160880Y-115762840D01*
X27160880Y-115679020D01*
X27165960Y-115605360D01*
X27173580Y-115536780D01*
X27186280Y-115470740D01*
X27206600Y-115402160D01*
X27216760Y-115364060D01*
X27272640Y-115221820D01*
X27346300Y-115084660D01*
X27437740Y-114960200D01*
X27539340Y-114845900D01*
X27656180Y-114744300D01*
X27783180Y-114657940D01*
X27917800Y-114586820D01*
X28062580Y-114530940D01*
X28214980Y-114495380D01*
X28230220Y-114490300D01*
X28301340Y-114482680D01*
X28385160Y-114480140D01*
X28471520Y-114477600D01*
X28557880Y-114480140D01*
X28639160Y-114485220D01*
X28705200Y-114492840D01*
X28796640Y-114513160D01*
X28941420Y-114561420D01*
X29078580Y-114627460D01*
X29210660Y-114711280D01*
X29330040Y-114807800D01*
X29439260Y-114919560D01*
X29535780Y-115044020D01*
X29617060Y-115178640D01*
X29655160Y-115254840D01*
X29700880Y-115379300D01*
X29733900Y-115503760D01*
X29754220Y-115638380D01*
X29759300Y-115780620D01*
X29756760Y-115861900D01*
X29741520Y-116014300D01*
X29708500Y-116161620D01*
X29657700Y-116298780D01*
X29589120Y-116430860D01*
X29500220Y-116555320D01*
X29393540Y-116677240D01*
X29391000Y-116679780D01*
X29269080Y-116794080D01*
X29142080Y-116888060D01*
X29010000Y-116961720D01*
X28872840Y-117020140D01*
X28728060Y-117058240D01*
X28575660Y-117078560D01*
X28540100Y-117081100D01*
X28499460Y-117083640D01*
X28461360Y-117083640D01*
X28418180Y-117081100D01*
X28367380Y-117078560D01*
X28303880Y-117073480D01*
X28237840Y-117065860D01*
X28098140Y-117035380D01*
X27963520Y-116987120D01*
X27831440Y-116923620D01*
X27704440Y-116844880D01*
X27587600Y-116753440D01*
X27483460Y-116649300D01*
X27392020Y-116537540D01*
X27389480Y-116535000D01*
X27310740Y-116413080D01*
G36*
X21255380Y-117368120D02*
G01*
X21237600Y-117429080D01*
X21143620Y-117429080D01*
X21120760Y-117426540D01*
X21110600Y-117421460D01*
X21115680Y-117406220D01*
X21125840Y-117378280D01*
X21141080Y-117335100D01*
X21161400Y-117279220D01*
X21184260Y-117218260D01*
X21188022Y-117208100D01*
X21311260Y-117208100D01*
X21407780Y-117208100D01*
X21430640Y-117205560D01*
X21440800Y-117203020D01*
X21438260Y-117195400D01*
X21433180Y-117172540D01*
X21423020Y-117142060D01*
X21410320Y-117106500D01*
X21397620Y-117073480D01*
X21387460Y-117048080D01*
X21379840Y-117035380D01*
X21377300Y-117037920D01*
X21367140Y-117050620D01*
X21356980Y-117081100D01*
X21341740Y-117119200D01*
X21311260Y-117208100D01*
X21188022Y-117208100D01*
X21209660Y-117149680D01*
X21308720Y-116882980D01*
X21443340Y-116882980D01*
X21544940Y-117157300D01*
X21649080Y-117429080D01*
X21524620Y-117429080D01*
X21501760Y-117368120D01*
X21478900Y-117309700D01*
X21273160Y-117309700D01*
X21255380Y-117368120D01*
G37*
X21255380Y-117368120D02*
X21237600Y-117429080D01*
X21143620Y-117429080D01*
X21120760Y-117426540D01*
X21110600Y-117421460D01*
X21115680Y-117406220D01*
X21125840Y-117378280D01*
X21141080Y-117335100D01*
X21161400Y-117279220D01*
X21184260Y-117218260D01*
X21188022Y-117208100D01*
X21311260Y-117208100D01*
X21407780Y-117208100D01*
X21430640Y-117205560D01*
X21440800Y-117203020D01*
X21438260Y-117195400D01*
X21433180Y-117172540D01*
X21423020Y-117142060D01*
X21410320Y-117106500D01*
X21397620Y-117073480D01*
X21387460Y-117048080D01*
X21379840Y-117035380D01*
X21377300Y-117037920D01*
X21367140Y-117050620D01*
X21356980Y-117081100D01*
X21341740Y-117119200D01*
X21311260Y-117208100D01*
X21188022Y-117208100D01*
X21209660Y-117149680D01*
X21308720Y-116882980D01*
X21443340Y-116882980D01*
X21544940Y-117157300D01*
X21649080Y-117429080D01*
X21524620Y-117429080D01*
X21501760Y-117368120D01*
X21478900Y-117309700D01*
X21273160Y-117309700D01*
X21255380Y-117368120D01*
G36*
X23930000Y-117050620D02*
G01*
X23930000Y-117185240D01*
X23932540Y-117213180D01*
X23932540Y-117223340D01*
X23935080Y-117223340D01*
X23942700Y-117213180D01*
X23960480Y-117187780D01*
X23983340Y-117152220D01*
X24013820Y-117106500D01*
X24046840Y-117053160D01*
X24153520Y-116877900D01*
X24280520Y-116877900D01*
X24280520Y-117429080D01*
X24161140Y-117429080D01*
X24158600Y-117253820D01*
X24156060Y-117076020D01*
X24046840Y-117251280D01*
X23935080Y-117429080D01*
X23810620Y-117429080D01*
X23810620Y-116877900D01*
X23932540Y-116877900D01*
X23930000Y-117050620D01*
G37*
X23930000Y-117050620D02*
X23930000Y-117185240D01*
X23932540Y-117213180D01*
X23932540Y-117223340D01*
X23935080Y-117223340D01*
X23942700Y-117213180D01*
X23960480Y-117187780D01*
X23983340Y-117152220D01*
X24013820Y-117106500D01*
X24046840Y-117053160D01*
X24153520Y-116877900D01*
X24280520Y-116877900D01*
X24280520Y-117429080D01*
X24161140Y-117429080D01*
X24158600Y-117253820D01*
X24156060Y-117076020D01*
X24046840Y-117251280D01*
X23935080Y-117429080D01*
X23810620Y-117429080D01*
X23810620Y-116877900D01*
X23932540Y-116877900D01*
X23930000Y-117050620D01*
G36*
X25906120Y-116880440D02*
G01*
X25928980Y-116882980D01*
X25936600Y-116885520D01*
X25928980Y-116898220D01*
X25913740Y-116921080D01*
X25893420Y-116959180D01*
X25865480Y-117004900D01*
X25835000Y-117055700D01*
X25738480Y-117215720D01*
X25738480Y-117429080D01*
X25619100Y-117429080D01*
X25619100Y-117228420D01*
X25410820Y-116877900D01*
X25553060Y-116882980D01*
X25606400Y-116974420D01*
X25659740Y-117063320D01*
X25667360Y-117078560D01*
X25674980Y-117078560D01*
X25690220Y-117063320D01*
X25710540Y-117032840D01*
X25738480Y-116984580D01*
X25799440Y-116877900D01*
X25873100Y-116877900D01*
X25906120Y-116880440D01*
G37*
X25906120Y-116880440D02*
X25928980Y-116882980D01*
X25936600Y-116885520D01*
X25928980Y-116898220D01*
X25913740Y-116921080D01*
X25893420Y-116959180D01*
X25865480Y-117004900D01*
X25835000Y-117055700D01*
X25738480Y-117215720D01*
X25738480Y-117429080D01*
X25619100Y-117429080D01*
X25619100Y-117228420D01*
X25410820Y-116877900D01*
X25553060Y-116882980D01*
X25606400Y-116974420D01*
X25659740Y-117063320D01*
X25667360Y-117078560D01*
X25674980Y-117078560D01*
X25690220Y-117063320D01*
X25710540Y-117032840D01*
X25738480Y-116984580D01*
X25799440Y-116877900D01*
X25873100Y-116877900D01*
X25906120Y-116880440D01*
G36*
X26053440Y-117408760D02*
G01*
X26010260Y-117383360D01*
X25977240Y-117340180D01*
X25962000Y-117289380D01*
X25963385Y-117258900D01*
X26089000Y-117258900D01*
X26091540Y-117286840D01*
X26106780Y-117312240D01*
X26114400Y-117317320D01*
X26134720Y-117324940D01*
X26165200Y-117327480D01*
X26210920Y-117330020D01*
X26299820Y-117330020D01*
X26299820Y-117187780D01*
X26216000Y-117187780D01*
X26167740Y-117190320D01*
X26129640Y-117195400D01*
X26104240Y-117208100D01*
X26091540Y-117228420D01*
X26089000Y-117258900D01*
X25963385Y-117258900D01*
X25964540Y-117233500D01*
X25967080Y-117218260D01*
X25984860Y-117182700D01*
X26012800Y-117154760D01*
X26038200Y-117136980D01*
X26045820Y-117134440D01*
X26043280Y-117124280D01*
X26028040Y-117106500D01*
X26025500Y-117103960D01*
X26005180Y-117078560D01*
X25992480Y-117053160D01*
X25989940Y-117032840D01*
X25990098Y-117030300D01*
X26109320Y-117030300D01*
X26114400Y-117060780D01*
X26132180Y-117083640D01*
X26139800Y-117088720D01*
X26175360Y-117096340D01*
X26226160Y-117098880D01*
X26276960Y-117098880D01*
X26292200Y-117093800D01*
X26297280Y-117086180D01*
X26299820Y-117070940D01*
X26302360Y-117043000D01*
X26299820Y-117009980D01*
X26297280Y-116979500D01*
X26167740Y-116979500D01*
X26139800Y-116984580D01*
X26124560Y-116994740D01*
X26119480Y-117002360D01*
X26109320Y-117030300D01*
X25990098Y-117030300D01*
X25992480Y-116992200D01*
X26000100Y-116954100D01*
X26015340Y-116926160D01*
X26022960Y-116918540D01*
X26040740Y-116903300D01*
X26063600Y-116893140D01*
X26094080Y-116885520D01*
X26137260Y-116880440D01*
X26190600Y-116880440D01*
X26264260Y-116877900D01*
X26429360Y-116877900D01*
X26429360Y-117429080D01*
X26213460Y-117429080D01*
X26160120Y-117426540D01*
X26122020Y-117426540D01*
X26094080Y-117421460D01*
X26089000Y-117421460D01*
X26071220Y-117416380D01*
X26053440Y-117408760D01*
G37*
X26053440Y-117408760D02*
X26010260Y-117383360D01*
X25977240Y-117340180D01*
X25962000Y-117289380D01*
X25963385Y-117258900D01*
X26089000Y-117258900D01*
X26091540Y-117286840D01*
X26106780Y-117312240D01*
X26114400Y-117317320D01*
X26134720Y-117324940D01*
X26165200Y-117327480D01*
X26210920Y-117330020D01*
X26299820Y-117330020D01*
X26299820Y-117187780D01*
X26216000Y-117187780D01*
X26167740Y-117190320D01*
X26129640Y-117195400D01*
X26104240Y-117208100D01*
X26091540Y-117228420D01*
X26089000Y-117258900D01*
X25963385Y-117258900D01*
X25964540Y-117233500D01*
X25967080Y-117218260D01*
X25984860Y-117182700D01*
X26012800Y-117154760D01*
X26038200Y-117136980D01*
X26045820Y-117134440D01*
X26043280Y-117124280D01*
X26028040Y-117106500D01*
X26025500Y-117103960D01*
X26005180Y-117078560D01*
X25992480Y-117053160D01*
X25989940Y-117032840D01*
X25990098Y-117030300D01*
X26109320Y-117030300D01*
X26114400Y-117060780D01*
X26132180Y-117083640D01*
X26139800Y-117088720D01*
X26175360Y-117096340D01*
X26226160Y-117098880D01*
X26276960Y-117098880D01*
X26292200Y-117093800D01*
X26297280Y-117086180D01*
X26299820Y-117070940D01*
X26302360Y-117043000D01*
X26299820Y-117009980D01*
X26297280Y-116979500D01*
X26167740Y-116979500D01*
X26139800Y-116984580D01*
X26124560Y-116994740D01*
X26119480Y-117002360D01*
X26109320Y-117030300D01*
X25990098Y-117030300D01*
X25992480Y-116992200D01*
X26000100Y-116954100D01*
X26015340Y-116926160D01*
X26022960Y-116918540D01*
X26040740Y-116903300D01*
X26063600Y-116893140D01*
X26094080Y-116885520D01*
X26137260Y-116880440D01*
X26190600Y-116880440D01*
X26264260Y-116877900D01*
X26429360Y-116877900D01*
X26429360Y-117429080D01*
X26213460Y-117429080D01*
X26160120Y-117426540D01*
X26122020Y-117426540D01*
X26094080Y-117421460D01*
X26089000Y-117421460D01*
X26071220Y-117416380D01*
X26053440Y-117408760D01*
G36*
X21956420Y-116867740D02*
G01*
X22007220Y-116885520D01*
X22050400Y-116913460D01*
X22083420Y-116949020D01*
X22103740Y-116989660D01*
X22108820Y-117035380D01*
X22098660Y-117078560D01*
X22068180Y-117124280D01*
X22055480Y-117139520D01*
X22032620Y-117154760D01*
X21999600Y-117170000D01*
X21951340Y-117185240D01*
X21923400Y-117192860D01*
X21870060Y-117210640D01*
X21831960Y-117225880D01*
X21806560Y-117238580D01*
X21791320Y-117251280D01*
X21783700Y-117266520D01*
X21781160Y-117294460D01*
X21793860Y-117317320D01*
X21824340Y-117335100D01*
X21852280Y-117342720D01*
X21900540Y-117347800D01*
X21943720Y-117337640D01*
X21976740Y-117312240D01*
X21997060Y-117279220D01*
X22002140Y-117261440D01*
X22012300Y-117248740D01*
X22030080Y-117243660D01*
X22060560Y-117241120D01*
X22103740Y-117241120D01*
X22121520Y-117248740D01*
X22126600Y-117266520D01*
X22121520Y-117297000D01*
X22118980Y-117302080D01*
X22093580Y-117355420D01*
X22052940Y-117396060D01*
X21997060Y-117426540D01*
X21925940Y-117441780D01*
X21854820Y-117441780D01*
X21793860Y-117429080D01*
X21740520Y-117406220D01*
X21702420Y-117373200D01*
X21694800Y-117363040D01*
X21671940Y-117327480D01*
X21661780Y-117289380D01*
X21664320Y-117241120D01*
X21664320Y-117233500D01*
X21674480Y-117195400D01*
X21697340Y-117164920D01*
X21730360Y-117139520D01*
X21781160Y-117119200D01*
X21847200Y-117096340D01*
X21852280Y-117096340D01*
X21910700Y-117078560D01*
X21951340Y-117060780D01*
X21974200Y-117048080D01*
X21979280Y-117040460D01*
X21989440Y-117022680D01*
X21984360Y-117004900D01*
X21966580Y-116984580D01*
X21964040Y-116979500D01*
X21931020Y-116964260D01*
X21892920Y-116959180D01*
X21854820Y-116969340D01*
X21821800Y-116987120D01*
X21804020Y-117017600D01*
X21796400Y-117035380D01*
X21786240Y-117043000D01*
X21768460Y-117048080D01*
X21679560Y-117048080D01*
X21684640Y-117007440D01*
X21699880Y-116956640D01*
X21730360Y-116916000D01*
X21778620Y-116888060D01*
X21842120Y-116867740D01*
X21898000Y-116862660D01*
X21956420Y-116867740D01*
G37*
X21956420Y-116867740D02*
X22007220Y-116885520D01*
X22050400Y-116913460D01*
X22083420Y-116949020D01*
X22103740Y-116989660D01*
X22108820Y-117035380D01*
X22098660Y-117078560D01*
X22068180Y-117124280D01*
X22055480Y-117139520D01*
X22032620Y-117154760D01*
X21999600Y-117170000D01*
X21951340Y-117185240D01*
X21923400Y-117192860D01*
X21870060Y-117210640D01*
X21831960Y-117225880D01*
X21806560Y-117238580D01*
X21791320Y-117251280D01*
X21783700Y-117266520D01*
X21781160Y-117294460D01*
X21793860Y-117317320D01*
X21824340Y-117335100D01*
X21852280Y-117342720D01*
X21900540Y-117347800D01*
X21943720Y-117337640D01*
X21976740Y-117312240D01*
X21997060Y-117279220D01*
X22002140Y-117261440D01*
X22012300Y-117248740D01*
X22030080Y-117243660D01*
X22060560Y-117241120D01*
X22103740Y-117241120D01*
X22121520Y-117248740D01*
X22126600Y-117266520D01*
X22121520Y-117297000D01*
X22118980Y-117302080D01*
X22093580Y-117355420D01*
X22052940Y-117396060D01*
X21997060Y-117426540D01*
X21925940Y-117441780D01*
X21854820Y-117441780D01*
X21793860Y-117429080D01*
X21740520Y-117406220D01*
X21702420Y-117373200D01*
X21694800Y-117363040D01*
X21671940Y-117327480D01*
X21661780Y-117289380D01*
X21664320Y-117241120D01*
X21664320Y-117233500D01*
X21674480Y-117195400D01*
X21697340Y-117164920D01*
X21730360Y-117139520D01*
X21781160Y-117119200D01*
X21847200Y-117096340D01*
X21852280Y-117096340D01*
X21910700Y-117078560D01*
X21951340Y-117060780D01*
X21974200Y-117048080D01*
X21979280Y-117040460D01*
X21989440Y-117022680D01*
X21984360Y-117004900D01*
X21966580Y-116984580D01*
X21964040Y-116979500D01*
X21931020Y-116964260D01*
X21892920Y-116959180D01*
X21854820Y-116969340D01*
X21821800Y-116987120D01*
X21804020Y-117017600D01*
X21796400Y-117035380D01*
X21786240Y-117043000D01*
X21768460Y-117048080D01*
X21679560Y-117048080D01*
X21684640Y-117007440D01*
X21699880Y-116956640D01*
X21730360Y-116916000D01*
X21778620Y-116888060D01*
X21842120Y-116867740D01*
X21898000Y-116862660D01*
X21956420Y-116867740D01*
G36*
X23536300Y-116872820D02*
G01*
X23597260Y-116898220D01*
X23650600Y-116938860D01*
X23670920Y-116964260D01*
X23706480Y-117025220D01*
X23724260Y-117093800D01*
X23729340Y-117164920D01*
X23721720Y-117233500D01*
X23696320Y-117299540D01*
X23658220Y-117355420D01*
X23640440Y-117373200D01*
X23599800Y-117406220D01*
X23559160Y-117426540D01*
X23505820Y-117436700D01*
X23462640Y-117441780D01*
X23391520Y-117434160D01*
X23330560Y-117411300D01*
X23279760Y-117370660D01*
X23241660Y-117317320D01*
X23216260Y-117246200D01*
X23211180Y-117218260D01*
X23295000Y-117218260D01*
X23322940Y-117220800D01*
X23338180Y-117225880D01*
X23340720Y-117233500D01*
X23340720Y-117241120D01*
X23353420Y-117271600D01*
X23373740Y-117302080D01*
X23401680Y-117322400D01*
X23422000Y-117332560D01*
X23467720Y-117337640D01*
X23513440Y-117324940D01*
X23554080Y-117299540D01*
X23584560Y-117256360D01*
X23589640Y-117246200D01*
X23599800Y-117200480D01*
X23602340Y-117147140D01*
X23597260Y-117093800D01*
X23584560Y-117053160D01*
X23574400Y-117032840D01*
X23541380Y-116997280D01*
X23500740Y-116976960D01*
X23457560Y-116969340D01*
X23414380Y-116979500D01*
X23376280Y-116999820D01*
X23345800Y-117037920D01*
X23338180Y-117053160D01*
X23325480Y-117063320D01*
X23307700Y-117068400D01*
X23256900Y-117068400D01*
X23234040Y-117065860D01*
X23223880Y-117060780D01*
X23221340Y-117048080D01*
X23221340Y-117043000D01*
X23228960Y-117017600D01*
X23241660Y-116989660D01*
X23254360Y-116964260D01*
X23297540Y-116918540D01*
X23350880Y-116885520D01*
X23409300Y-116867740D01*
X23472800Y-116862660D01*
X23536300Y-116872820D01*
G37*
X23536300Y-116872820D02*
X23597260Y-116898220D01*
X23650600Y-116938860D01*
X23670920Y-116964260D01*
X23706480Y-117025220D01*
X23724260Y-117093800D01*
X23729340Y-117164920D01*
X23721720Y-117233500D01*
X23696320Y-117299540D01*
X23658220Y-117355420D01*
X23640440Y-117373200D01*
X23599800Y-117406220D01*
X23559160Y-117426540D01*
X23505820Y-117436700D01*
X23462640Y-117441780D01*
X23391520Y-117434160D01*
X23330560Y-117411300D01*
X23279760Y-117370660D01*
X23241660Y-117317320D01*
X23216260Y-117246200D01*
X23211180Y-117218260D01*
X23295000Y-117218260D01*
X23322940Y-117220800D01*
X23338180Y-117225880D01*
X23340720Y-117233500D01*
X23340720Y-117241120D01*
X23353420Y-117271600D01*
X23373740Y-117302080D01*
X23401680Y-117322400D01*
X23422000Y-117332560D01*
X23467720Y-117337640D01*
X23513440Y-117324940D01*
X23554080Y-117299540D01*
X23584560Y-117256360D01*
X23589640Y-117246200D01*
X23599800Y-117200480D01*
X23602340Y-117147140D01*
X23597260Y-117093800D01*
X23584560Y-117053160D01*
X23574400Y-117032840D01*
X23541380Y-116997280D01*
X23500740Y-116976960D01*
X23457560Y-116969340D01*
X23414380Y-116979500D01*
X23376280Y-116999820D01*
X23345800Y-117037920D01*
X23338180Y-117053160D01*
X23325480Y-117063320D01*
X23307700Y-117068400D01*
X23256900Y-117068400D01*
X23234040Y-117065860D01*
X23223880Y-117060780D01*
X23221340Y-117048080D01*
X23221340Y-117043000D01*
X23228960Y-117017600D01*
X23241660Y-116989660D01*
X23254360Y-116964260D01*
X23297540Y-116918540D01*
X23350880Y-116885520D01*
X23409300Y-116867740D01*
X23472800Y-116862660D01*
X23536300Y-116872820D01*
G36*
X20201280Y-114162640D02*
G01*
X20247000Y-114157560D01*
X20445120Y-114157560D01*
X20536560Y-114155020D01*
X26896720Y-114155020D01*
X27153260Y-114157560D01*
X28758540Y-114157560D01*
X28951580Y-114160100D01*
X29733900Y-114160100D01*
X29848200Y-114162640D01*
X30175860Y-114162640D01*
X30186020Y-114165180D01*
X30186020Y-114167720D01*
X30188560Y-114190580D01*
X30188560Y-114287100D01*
X30191100Y-114360760D01*
X30191100Y-114546180D01*
X30193640Y-114657940D01*
X30193640Y-115046560D01*
X30196180Y-115191340D01*
X30196180Y-115813640D01*
X30198720Y-115968580D01*
X30198720Y-117096340D01*
X30196180Y-117197940D01*
X30196180Y-117431620D01*
X30193640Y-117477340D01*
X30193640Y-117505280D01*
X30186020Y-117650060D01*
X20201280Y-117650060D01*
X20201280Y-116689940D01*
X20300340Y-116689940D01*
X20300340Y-117568780D01*
X30119980Y-117568780D01*
X30119980Y-116689940D01*
X29817720Y-116689940D01*
X29799940Y-116720420D01*
X29784700Y-116748360D01*
X29751680Y-116794080D01*
X29708500Y-116844880D01*
X29660240Y-116900760D01*
X29606900Y-116956640D01*
X29510380Y-117053160D01*
X29469740Y-117086180D01*
X29416400Y-117124280D01*
X29258920Y-117228420D01*
X29101440Y-117312240D01*
X28949040Y-117378280D01*
X28796640Y-117424000D01*
X28662020Y-117449400D01*
X28529940Y-117462100D01*
X28400400Y-117462100D01*
X28268320Y-117449400D01*
X28123540Y-117424000D01*
X28118460Y-117424000D01*
X28021940Y-117398600D01*
X27927960Y-117368120D01*
X27836520Y-117332560D01*
X27740000Y-117286840D01*
X27630780Y-117230960D01*
X27562200Y-117190320D01*
X27470760Y-117126820D01*
X27389480Y-117060780D01*
X27310740Y-116982040D01*
X27237080Y-116888060D01*
X27160880Y-116781380D01*
X27097380Y-116689940D01*
X20300340Y-116689940D01*
X20201280Y-116689940D01*
X20201280Y-114299800D01*
X20290180Y-114299800D01*
X20290180Y-116598500D01*
X23729340Y-116598500D01*
X27163420Y-116601040D01*
X27254860Y-116738200D01*
X27295500Y-116791540D01*
X27341220Y-116847420D01*
X27384400Y-116895680D01*
X27437740Y-116949020D01*
X27567280Y-117063320D01*
X27704440Y-117157300D01*
X27854300Y-117236040D01*
X28011780Y-117294460D01*
X28181960Y-117340180D01*
X28227680Y-117347800D01*
X28306420Y-117355420D01*
X28392780Y-117363040D01*
X28479140Y-117365580D01*
X28560420Y-117363040D01*
X28626460Y-117357960D01*
X28756000Y-117337640D01*
X28918560Y-117291920D01*
X29073500Y-117230960D01*
X29218280Y-117152220D01*
X29355440Y-117058240D01*
X29479900Y-116951560D01*
X29591660Y-116832180D01*
X29688180Y-116700100D01*
X29754220Y-116598500D01*
X30109820Y-116598500D01*
X30109820Y-114299800D01*
X30051400Y-114241380D01*
X20348600Y-114241380D01*
X20290180Y-114299800D01*
X20201280Y-114299800D01*
X20201280Y-114162640D01*
G37*
X20201280Y-114162640D02*
X20247000Y-114157560D01*
X20445120Y-114157560D01*
X20536560Y-114155020D01*
X26896720Y-114155020D01*
X27153260Y-114157560D01*
X28758540Y-114157560D01*
X28951580Y-114160100D01*
X29733900Y-114160100D01*
X29848200Y-114162640D01*
X30175860Y-114162640D01*
X30186020Y-114165180D01*
X30186020Y-114167720D01*
X30188560Y-114190580D01*
X30188560Y-114287100D01*
X30191100Y-114360760D01*
X30191100Y-114546180D01*
X30193640Y-114657940D01*
X30193640Y-115046560D01*
X30196180Y-115191340D01*
X30196180Y-115813640D01*
X30198720Y-115968580D01*
X30198720Y-117096340D01*
X30196180Y-117197940D01*
X30196180Y-117431620D01*
X30193640Y-117477340D01*
X30193640Y-117505280D01*
X30186020Y-117650060D01*
X20201280Y-117650060D01*
X20201280Y-116689940D01*
X20300340Y-116689940D01*
X20300340Y-117568780D01*
X30119980Y-117568780D01*
X30119980Y-116689940D01*
X29817720Y-116689940D01*
X29799940Y-116720420D01*
X29784700Y-116748360D01*
X29751680Y-116794080D01*
X29708500Y-116844880D01*
X29660240Y-116900760D01*
X29606900Y-116956640D01*
X29510380Y-117053160D01*
X29469740Y-117086180D01*
X29416400Y-117124280D01*
X29258920Y-117228420D01*
X29101440Y-117312240D01*
X28949040Y-117378280D01*
X28796640Y-117424000D01*
X28662020Y-117449400D01*
X28529940Y-117462100D01*
X28400400Y-117462100D01*
X28268320Y-117449400D01*
X28123540Y-117424000D01*
X28118460Y-117424000D01*
X28021940Y-117398600D01*
X27927960Y-117368120D01*
X27836520Y-117332560D01*
X27740000Y-117286840D01*
X27630780Y-117230960D01*
X27562200Y-117190320D01*
X27470760Y-117126820D01*
X27389480Y-117060780D01*
X27310740Y-116982040D01*
X27237080Y-116888060D01*
X27160880Y-116781380D01*
X27097380Y-116689940D01*
X20300340Y-116689940D01*
X20201280Y-116689940D01*
X20201280Y-114299800D01*
X20290180Y-114299800D01*
X20290180Y-116598500D01*
X23729340Y-116598500D01*
X27163420Y-116601040D01*
X27254860Y-116738200D01*
X27295500Y-116791540D01*
X27341220Y-116847420D01*
X27384400Y-116895680D01*
X27437740Y-116949020D01*
X27567280Y-117063320D01*
X27704440Y-117157300D01*
X27854300Y-117236040D01*
X28011780Y-117294460D01*
X28181960Y-117340180D01*
X28227680Y-117347800D01*
X28306420Y-117355420D01*
X28392780Y-117363040D01*
X28479140Y-117365580D01*
X28560420Y-117363040D01*
X28626460Y-117357960D01*
X28756000Y-117337640D01*
X28918560Y-117291920D01*
X29073500Y-117230960D01*
X29218280Y-117152220D01*
X29355440Y-117058240D01*
X29479900Y-116951560D01*
X29591660Y-116832180D01*
X29688180Y-116700100D01*
X29754220Y-116598500D01*
X30109820Y-116598500D01*
X30109820Y-114299800D01*
X30051400Y-114241380D01*
X20348600Y-114241380D01*
X20290180Y-114299800D01*
X20201280Y-114299800D01*
X20201280Y-114162640D01*
M02*
