M48
;DRILL file {KiCad (2018-02-05 revision 1f487593f)-makepkg} date 06/26/18 14:36:51
;FORMAT={-:-/ absolute / inch / decimal}
FMAT,2
INCH,TZ
T1C0.0157
T2C0.0315
T3C0.0394
T4C0.1260
T5C0.1083
%
G90
G05
M72
T1
X0.8081Y-3.4409
X0.811Y-2.999
X0.8189Y-4.6614
X0.9596Y-3.2372
X0.9606Y-3.3504
X1.0315Y-4.8858
X1.1575Y-3.2087
X1.1732Y-2.9961
X1.1772Y-3.3504
X1.1831Y-3.1378
X1.2205Y-3.5266
X1.2205Y-3.6063
X1.2205Y-3.685
X1.2244Y-3.7638
X1.2244Y-3.8425
X1.2244Y-3.9213
X1.2244Y-4.
X1.2244Y-4.0787
X1.2244Y-4.1575
X1.2244Y-4.2362
X1.2874Y-4.2835
X1.3061Y-3.4646
X1.3468Y-3.7231
X1.3583Y-4.374
X1.3622Y-4.6102
X1.3819Y-4.7953
X1.3937Y-3.5551
X1.4291Y-4.1654
X1.4961Y-4.0236
X1.5512Y-3.7441
X1.5669Y-3.185
X1.5709Y-3.4173
X1.5906Y-3.
X1.6229Y-3.1251
X1.6339Y-4.4528
X1.6476Y-3.9232
X1.6909Y-3.8898
X1.7028Y-3.7205
X1.7402Y-3.6102
X1.7559Y-3.5089
X1.7598Y-3.7736
X1.7815Y-3.7165
X1.7953Y-3.9094
X1.811Y-3.7362
X1.8661Y-4.0039
X1.8937Y-3.4409
X1.9291Y-3.3031
X1.9508Y-4.0768
X2.0197Y-3.6299
X2.0551Y-4.0728
X2.0827Y-3.3898
X2.1339Y-3.6476
X2.1417Y-4.0315
X2.2441Y-4.5197
X2.3071Y-3.4803
X2.315Y-3.622
X2.374Y-3.2598
X2.4134Y-4.2638
X2.437Y-3.0945
X2.4685Y-3.4508
X2.5315Y-3.3514
X2.5354Y-3.435
X2.5433Y-3.5049
X2.5906Y-3.7795
X2.5984Y-3.8937
X2.6142Y-3.0472
X2.6142Y-3.248
X2.6181Y-4.4606
X2.685Y-4.4528
X2.7559Y-4.3228
X2.8061Y-3.688
X2.8071Y-3.5354
X2.8465Y-4.1772
X2.9154Y-4.4094
X2.94Y-3.7933
X2.9409Y-3.248
X2.9409Y-3.3819
X2.9646Y-3.7126
X3.0276Y-3.1811
X3.0394Y-4.3543
X3.0433Y-4.5591
X3.0512Y-3.4429
X3.0709Y-4.8898
X3.1024Y-3.2362
X3.1811Y-4.3602
X3.1811Y-4.6142
X3.2185Y-4.1299
X3.2244Y-3.7126
X3.2677Y-3.7717
X3.2697Y-3.8878
X3.2717Y-3.8228
X3.2756Y-4.0157
T2
X2.7622Y-4.7146
X2.8622Y-4.6146
X2.8622Y-4.8146
X0.8346Y-3.5276
X0.8346Y-3.6063
X0.8346Y-3.685
X0.8346Y-3.7638
X0.8346Y-3.8425
X0.8346Y-3.9213
X0.8346Y-4.
X0.8346Y-4.0787
X0.8346Y-4.1575
X0.8346Y-4.2362
X0.9134Y-3.5276
X0.9134Y-3.6063
X0.9134Y-3.685
X0.9134Y-3.7638
X0.9134Y-3.8425
X0.9134Y-3.9213
X0.9134Y-4.
X0.9134Y-4.0787
X0.9134Y-4.1575
X0.9134Y-4.2362
T3
X1.1933Y-2.8161
X1.1933Y-2.9161
X2.1406Y-4.4016
X1.0933Y-2.8161
X1.0933Y-2.9161
X0.8465Y-4.4252
X0.9465Y-4.4252
X1.0465Y-4.4252
X1.1465Y-4.4252
X1.2933Y-2.8161
X1.2933Y-2.9161
X1.3933Y-2.8161
X1.3933Y-2.9161
X1.4933Y-2.8161
X1.4933Y-2.9161
X1.5933Y-2.8161
X1.5933Y-2.9161
X1.6933Y-2.9161
X1.7933Y-2.8161
X1.7933Y-2.9161
X1.8933Y-2.8161
X1.8933Y-2.9161
X1.9933Y-2.8161
X1.9933Y-2.9161
X2.0933Y-2.8161
X2.0933Y-2.9161
X2.1933Y-2.8161
X2.6933Y-2.8161
X2.2406Y-4.4016
X1.6933Y-2.8161
X2.3406Y-4.4016
X2.1933Y-2.9161
X2.2933Y-2.8161
X2.2933Y-2.9161
X2.3933Y-2.8161
X2.3933Y-2.9161
X2.4933Y-2.8161
X2.4933Y-2.9161
X2.5933Y-2.8161
X2.5933Y-2.9161
X1.9406Y-4.4016
X2.2045Y-4.7142
X1.7406Y-4.4016
X1.8406Y-4.4016
X2.8933Y-2.8161
X2.9933Y-2.8161
X1.8228Y-4.6024
X1.8774Y-4.7142
X1.9319Y-4.6024
X1.9864Y-4.7142
X2.0409Y-4.6024
X2.0955Y-4.7142
X2.15Y-4.6024
X2.2591Y-4.6024
X2.0406Y-4.4016
X1.4331Y-3.0661
X2.6933Y-2.9161
X2.7933Y-2.8161
X2.7933Y-2.9161
X1.4331Y-3.1661
X1.4331Y-3.2661
X1.4331Y-3.3661
X2.8933Y-2.9161
X2.9933Y-2.9161
T4
X1.5488Y-4.6142
X2.5331Y-4.6142
T5
X3.185Y-2.8661
X0.9016Y-4.7953
X0.9016Y-2.8661
X3.185Y-4.7953
T0
M30
