%TF.GenerationSoftware,KiCad,Pcbnew,(2018-02-05 revision 1f487593f)-makepkg*%
%TF.CreationDate,2018-06-26T14:30:34+02:00*%
%TF.ProjectId,MMDVM_Hat,4D4D44564D5F4861742E6B696361645F,rev?*%
%TF.SameCoordinates,Original*%
%TF.FileFunction,Soldermask,Top*%
%TF.FilePolarity,Negative*%
%FSLAX46Y46*%
G04 Gerber Fmt 4.6, Leading zero omitted, Abs format (unit mm)*
G04 Created by KiCad (PCBNEW (2018-02-05 revision 1f487593f)-makepkg) date 06/26/18 14:30:34*
%MOMM*%
%LPD*%
G01*
G04 APERTURE LIST*
%ADD10C,0.100000*%
%ADD11C,0.300000*%
%ADD12R,1.500000X1.500000*%
%ADD13R,2.500000X2.550000*%
%ADD14R,2.550000X2.500000*%
%ADD15R,0.250000X1.000000*%
%ADD16R,1.000000X0.250000*%
%ADD17C,6.200000*%
%ADD18R,1.950000X1.500000*%
%ADD19R,0.800000X0.750000*%
%ADD20R,1.500000X1.950000*%
%ADD21R,0.750000X0.800000*%
%ADD22R,0.800000X0.800000*%
%ADD23C,4.000000*%
%ADD24C,1.600000*%
%ADD25R,1.600000X1.600000*%
%ADD26O,1.700000X1.700000*%
%ADD27R,1.700000X1.700000*%
%ADD28R,0.500000X0.900000*%
%ADD29R,0.800000X0.900000*%
%ADD30R,0.900000X0.800000*%
%ADD31R,0.900000X0.500000*%
%ADD32C,1.440000*%
%ADD33R,1.300000X1.300000*%
%ADD34R,2.000000X1.300000*%
%ADD35R,1.300000X1.600000*%
%ADD36R,2.000000X1.600000*%
%ADD37C,1.500000*%
%ADD38R,2.000000X1.500000*%
%ADD39R,2.000000X3.800000*%
%ADD40R,1.550000X0.600000*%
%ADD41R,2.400000X1.900000*%
%ADD42O,1.350000X1.350000*%
%ADD43R,1.350000X1.350000*%
G04 APERTURE END LIST*
D10*
X84400000Y-72300000D02*
G75*
G03X81400000Y-69300000I-3000000J0D01*
G01*
X22400000Y-69300000D02*
X81400000Y-69300000D01*
X22400000Y-69300000D02*
G75*
G03X19400000Y-72300000I0J-3000000D01*
G01*
X81400000Y-125300000D02*
G75*
G03X84400000Y-122300000I0J3000000D01*
G01*
X19400000Y-122300000D02*
G75*
G03X22400000Y-125300000I3000000J0D01*
G01*
X19400000Y-87800000D02*
X19400000Y-122300000D01*
X19400000Y-72300000D02*
X19400000Y-87800000D01*
X22400000Y-125300000D02*
X81400000Y-125300000D01*
X84400000Y-72300000D02*
X84400000Y-122300000D01*
D11*
X75700000Y-118550000D03*
D10*
G36*
X75700000Y-117550000D02*
X76450000Y-118050000D01*
X76450000Y-119050000D01*
X74950000Y-119050000D01*
X74950000Y-118050000D01*
X75700000Y-117550000D01*
X75700000Y-117550000D01*
G37*
D11*
X75700000Y-117100000D03*
D10*
G36*
X76450000Y-116600000D02*
X76450000Y-117750000D01*
X75700000Y-117250000D01*
X74950000Y-117750000D01*
X74950000Y-116600000D01*
X76450000Y-116600000D01*
X76450000Y-116600000D01*
G37*
D11*
X29100000Y-121900000D03*
D10*
G36*
X30100000Y-121900000D02*
X29600000Y-122650000D01*
X28600000Y-122650000D01*
X28600000Y-121150000D01*
X29600000Y-121150000D01*
X30100000Y-121900000D01*
X30100000Y-121900000D01*
G37*
D11*
X33100000Y-121900000D03*
D10*
G36*
X32100000Y-121900000D02*
X32600000Y-121150000D01*
X33600000Y-121150000D01*
X33600000Y-122650000D01*
X32600000Y-122650000D01*
X32100000Y-121900000D01*
X32100000Y-121900000D01*
G37*
D12*
X32300000Y-121900000D03*
X29900000Y-121900000D03*
D13*
X68575000Y-85125000D03*
X68575000Y-80075000D03*
X64300000Y-80075000D03*
X64300000Y-85125000D03*
D14*
X76475000Y-91925000D03*
X81525000Y-91925000D03*
X76975000Y-103050000D03*
X71925000Y-103050000D03*
D13*
X81950000Y-108525000D03*
X81950000Y-113575000D03*
D15*
X50850000Y-97600000D03*
X50350000Y-97600000D03*
X49850000Y-97600000D03*
X49350000Y-97600000D03*
X48850000Y-97600000D03*
X48350000Y-97600000D03*
X47850000Y-97600000D03*
X47350000Y-97600000D03*
X46850000Y-97600000D03*
X46350000Y-97600000D03*
X45850000Y-97600000D03*
X45350000Y-97600000D03*
X44850000Y-97600000D03*
X44350000Y-97600000D03*
X43850000Y-97600000D03*
X43350000Y-97600000D03*
D16*
X41400000Y-95650000D03*
X41400000Y-95150000D03*
X41400000Y-94650000D03*
X41400000Y-94150000D03*
X41400000Y-93650000D03*
X41400000Y-93150000D03*
X41400000Y-92650000D03*
X41400000Y-92150000D03*
X41400000Y-91650000D03*
X41400000Y-91150000D03*
X41400000Y-90650000D03*
X41400000Y-90150000D03*
X41400000Y-89650000D03*
X41400000Y-89150000D03*
X41400000Y-88650000D03*
X41400000Y-88150000D03*
D15*
X43350000Y-86200000D03*
X43850000Y-86200000D03*
X44350000Y-86200000D03*
X44850000Y-86200000D03*
X45350000Y-86200000D03*
X45850000Y-86200000D03*
X46350000Y-86200000D03*
X46850000Y-86200000D03*
X47350000Y-86200000D03*
X47850000Y-86200000D03*
X48350000Y-86200000D03*
X48850000Y-86200000D03*
X49350000Y-86200000D03*
X49850000Y-86200000D03*
X50350000Y-86200000D03*
X50850000Y-86200000D03*
D16*
X52800000Y-88150000D03*
X52800000Y-88650000D03*
X52800000Y-89150000D03*
X52800000Y-89650000D03*
X52800000Y-90150000D03*
X52800000Y-90650000D03*
X52800000Y-91150000D03*
X52800000Y-91650000D03*
X52800000Y-92150000D03*
X52800000Y-92650000D03*
X52800000Y-93150000D03*
X52800000Y-93650000D03*
X52800000Y-94150000D03*
X52800000Y-94650000D03*
X52800000Y-95150000D03*
X52800000Y-95650000D03*
D17*
X80900000Y-72800000D03*
X80900000Y-121800000D03*
X22900000Y-121800000D03*
X22900000Y-72800000D03*
D18*
X21400000Y-78400000D03*
X24150000Y-78400000D03*
D19*
X28050000Y-78400000D03*
X26550000Y-78400000D03*
X31750000Y-82900000D03*
X33250000Y-82900000D03*
X55550000Y-97250000D03*
X57050000Y-97250000D03*
D20*
X32600000Y-80175000D03*
X32600000Y-77425000D03*
D19*
X31750000Y-86300000D03*
X33250000Y-86300000D03*
X55550000Y-93800000D03*
X57050000Y-93800000D03*
D21*
X37500000Y-107400000D03*
X37500000Y-108900000D03*
X35800000Y-108900000D03*
X35800000Y-107400000D03*
X43800000Y-99950000D03*
X43800000Y-101450000D03*
X51900000Y-108050000D03*
X51900000Y-106550000D03*
X60200000Y-106550000D03*
X60200000Y-108050000D03*
D19*
X74900000Y-123900000D03*
X76400000Y-123900000D03*
X59950000Y-100250000D03*
X61450000Y-100250000D03*
X61500000Y-91800000D03*
X60000000Y-91800000D03*
X45400000Y-84200000D03*
X46900000Y-84200000D03*
X55600000Y-90400000D03*
X57100000Y-90400000D03*
X57100000Y-88800000D03*
X55600000Y-88800000D03*
X38300000Y-100300000D03*
X39800000Y-100300000D03*
X39800000Y-98800000D03*
X38300000Y-98800000D03*
D21*
X52300000Y-101450000D03*
X52300000Y-99950000D03*
X50500000Y-99950000D03*
X50500000Y-101450000D03*
D22*
X28325000Y-89575000D03*
X29925000Y-89575000D03*
X29950000Y-91600000D03*
X28350000Y-91600000D03*
X28375000Y-93600000D03*
X29975000Y-93600000D03*
X30000000Y-95600000D03*
X28400000Y-95600000D03*
X28400000Y-105600000D03*
X30000000Y-105600000D03*
X28400000Y-103600000D03*
X30000000Y-103600000D03*
X30000000Y-101600000D03*
X28400000Y-101600000D03*
X28400000Y-99600000D03*
X30000000Y-99600000D03*
X30000000Y-97600000D03*
X28400000Y-97600000D03*
D23*
X64340000Y-117200000D03*
X39340000Y-117200000D03*
D24*
X55995000Y-119740000D03*
X53225000Y-119740000D03*
X50455000Y-119740000D03*
X47685000Y-119740000D03*
X57380000Y-116900000D03*
X54610000Y-116900000D03*
X51840000Y-116900000D03*
X49070000Y-116900000D03*
D25*
X46300000Y-116900000D03*
D26*
X76030000Y-71530000D03*
X76030000Y-74070000D03*
X73490000Y-71530000D03*
X73490000Y-74070000D03*
X70950000Y-71530000D03*
X70950000Y-74070000D03*
X68410000Y-71530000D03*
X68410000Y-74070000D03*
X65870000Y-71530000D03*
X65870000Y-74070000D03*
X63330000Y-71530000D03*
X63330000Y-74070000D03*
X60790000Y-71530000D03*
X60790000Y-74070000D03*
X58250000Y-71530000D03*
X58250000Y-74070000D03*
X55710000Y-71530000D03*
X55710000Y-74070000D03*
X53170000Y-71530000D03*
X53170000Y-74070000D03*
X50630000Y-71530000D03*
X50630000Y-74070000D03*
X48090000Y-71530000D03*
X48090000Y-74070000D03*
X45550000Y-71530000D03*
X45550000Y-74070000D03*
X43010000Y-71530000D03*
X43010000Y-74070000D03*
X40470000Y-71530000D03*
X40470000Y-74070000D03*
X37930000Y-71530000D03*
X37930000Y-74070000D03*
X35390000Y-71530000D03*
X35390000Y-74070000D03*
X32850000Y-71530000D03*
X32850000Y-74070000D03*
X30310000Y-71530000D03*
X30310000Y-74070000D03*
X27770000Y-71530000D03*
D27*
X27770000Y-74070000D03*
X36400000Y-85500000D03*
D26*
X36400000Y-82960000D03*
X36400000Y-80420000D03*
X36400000Y-77880000D03*
X44210000Y-111800000D03*
X46750000Y-111800000D03*
X49290000Y-111800000D03*
X51830000Y-111800000D03*
X54370000Y-111800000D03*
X56910000Y-111800000D03*
D27*
X59450000Y-111800000D03*
D26*
X29120000Y-112400000D03*
X26580000Y-112400000D03*
X24040000Y-112400000D03*
D27*
X21500000Y-112400000D03*
D28*
X33250000Y-84600000D03*
X31750000Y-84600000D03*
X57150000Y-87000000D03*
X55650000Y-87000000D03*
D29*
X50150000Y-105800000D03*
X48250000Y-105800000D03*
X49200000Y-107800000D03*
D30*
X64600000Y-107500000D03*
X62600000Y-108450000D03*
X62600000Y-106550000D03*
D28*
X33475000Y-89575000D03*
X31975000Y-89575000D03*
X32000000Y-91600000D03*
X33500000Y-91600000D03*
D31*
X48600000Y-101450000D03*
X48600000Y-99950000D03*
D28*
X32025000Y-93600000D03*
X33525000Y-93600000D03*
X33550000Y-95600000D03*
X32050000Y-95600000D03*
X32050000Y-105600000D03*
X33550000Y-105600000D03*
X33550000Y-103600000D03*
X32050000Y-103600000D03*
X32050000Y-101600000D03*
X33550000Y-101600000D03*
X32050000Y-99600000D03*
X33550000Y-99600000D03*
X55550000Y-92100000D03*
X57050000Y-92100000D03*
X33550000Y-97600000D03*
X32050000Y-97600000D03*
D31*
X55200000Y-106450000D03*
X55200000Y-107950000D03*
X53500000Y-107950000D03*
X53500000Y-106450000D03*
X56900000Y-108100000D03*
X56900000Y-106600000D03*
X58600000Y-108100000D03*
X58600000Y-106600000D03*
D28*
X76410000Y-120610000D03*
X74910000Y-120610000D03*
X74910000Y-122300000D03*
X76410000Y-122300000D03*
D31*
X62600000Y-112300000D03*
X62600000Y-110800000D03*
D28*
X55550000Y-95500000D03*
X57050000Y-95500000D03*
X80150000Y-80800000D03*
X81650000Y-80800000D03*
X72200000Y-110400000D03*
X73700000Y-110400000D03*
X72200000Y-108650000D03*
X73700000Y-108650000D03*
X79650000Y-102000000D03*
X81150000Y-102000000D03*
X81100000Y-103600000D03*
X79600000Y-103600000D03*
X76300000Y-106750000D03*
X77800000Y-106750000D03*
X80050000Y-85700000D03*
X81550000Y-85700000D03*
X81550000Y-84000000D03*
X80050000Y-84000000D03*
X81650000Y-79125000D03*
X80150000Y-79125000D03*
X69550000Y-95500000D03*
X68050000Y-95500000D03*
X68050000Y-97200000D03*
X69550000Y-97200000D03*
X68050000Y-98900000D03*
X69550000Y-98900000D03*
X81150000Y-100300000D03*
X79650000Y-100300000D03*
D32*
X72700000Y-117210000D03*
X70160000Y-119750000D03*
X72700000Y-122290000D03*
D33*
X75950000Y-114350000D03*
D34*
X77100000Y-108850000D03*
D33*
X78250000Y-114350000D03*
D35*
X69300000Y-93250000D03*
D36*
X68050000Y-90350000D03*
D35*
X66800000Y-93250000D03*
X29850000Y-119250000D03*
D36*
X31100000Y-116350000D03*
D35*
X32350000Y-119250000D03*
D37*
X70170000Y-113470000D03*
X78100000Y-79600000D03*
X68300000Y-108550000D03*
X72925000Y-93625000D03*
X26700000Y-116300000D03*
D38*
X27550000Y-86100000D03*
X27550000Y-81500000D03*
X27550000Y-83800000D03*
D39*
X21250000Y-83800000D03*
D40*
X77300000Y-86005000D03*
X77300000Y-84735000D03*
X77300000Y-83465000D03*
X77300000Y-82195000D03*
X71900000Y-82195000D03*
X71900000Y-83465000D03*
X71900000Y-84735000D03*
X71900000Y-86005000D03*
X77200000Y-95995000D03*
X77200000Y-97265000D03*
X77200000Y-98535000D03*
X77200000Y-99805000D03*
X71800000Y-99805000D03*
X71800000Y-98535000D03*
X71800000Y-97265000D03*
X71800000Y-95995000D03*
D35*
X41750000Y-107400000D03*
X41750000Y-103400000D03*
X39250000Y-103400000D03*
X39250000Y-107400000D03*
D41*
X61200000Y-93950000D03*
X61200000Y-98050000D03*
D19*
X80050000Y-87400000D03*
X81550000Y-87400000D03*
X80150000Y-82400000D03*
X81650000Y-82400000D03*
D21*
X73375000Y-80475000D03*
X73375000Y-78975000D03*
D19*
X69450000Y-100500000D03*
X67950000Y-100500000D03*
X81050000Y-97100000D03*
X79550000Y-97100000D03*
X79650000Y-98700000D03*
X81150000Y-98700000D03*
X67950000Y-87700000D03*
X69450000Y-87700000D03*
X79550000Y-95500000D03*
X81050000Y-95500000D03*
D22*
X28400000Y-107600000D03*
X30000000Y-107600000D03*
D42*
X21200000Y-89600000D03*
X23200000Y-89600000D03*
X21200000Y-91600000D03*
X23200000Y-91600000D03*
X21200000Y-93600000D03*
X23200000Y-93600000D03*
X21200000Y-95600000D03*
X23200000Y-95600000D03*
X21200000Y-97600000D03*
X23200000Y-97600000D03*
X21200000Y-99600000D03*
X23200000Y-99600000D03*
X21200000Y-101600000D03*
X23200000Y-101600000D03*
X21200000Y-103600000D03*
X23200000Y-103600000D03*
X21200000Y-105600000D03*
X23200000Y-105600000D03*
X21200000Y-107600000D03*
D43*
X23200000Y-107600000D03*
D28*
X32050000Y-107600000D03*
X33550000Y-107600000D03*
M02*
