M48
; DRILL file {KiCad 5.99.0-unknown-632494c~88~ubuntu19.10.1} date Tue May 12 07:32:43 2020
; FORMAT={-:-/ absolute / metric / decimal}
; #@! TF.CreationDate,2020-05-12T07:32:43+02:00
; #@! TF.GenerationSoftware,Kicad,Pcbnew,5.99.0-unknown-632494c~88~ubuntu19.10.1
FMAT,2
METRIC
T1C0.400
T2C0.800
T3C1.000
T4C3.200
T5C2.750
%
G90
G05
T1
X20.6Y-76.175
X20.8Y-118.4
X24.375Y-82.225
X24.4Y-85.1
X25.2Y-88.8
X26.2Y-106.6
X26.2Y-108.6
X26.2Y-124.1
X29.4Y-81.5
X29.8Y-76.1
X29.9Y-85.1
X30.05Y-79.7
X31.0Y-89.575
X31.0Y-91.6
X31.0Y-93.6
X31.1Y-95.6
X31.1Y-97.6
X31.1Y-99.6
X31.1Y-101.6
X31.1Y-103.6
X31.1Y-105.6
X31.1Y-107.6
X31.1Y-109.6
X33.175Y-88.0
X34.208Y-94.568
X34.6Y-117.1
X35.4Y-90.3
X35.8Y-111.0
X36.3Y-105.8
X39.4Y-95.1
X39.8Y-80.9
X39.8Y-96.875
X39.9Y-86.8
X40.0Y-110.1
X40.4Y-76.2
X40.6Y-105.4
X41.223Y-79.377
X41.85Y-99.65
X42.9Y-118.1
X42.95Y-98.8
X43.1Y-115.9
X43.25Y-94.5
X44.0Y-107.9
X44.2Y-91.7
X44.6Y-89.125
X44.7Y-95.85
X44.9Y-119.1
X45.25Y-94.4
X46.0Y-94.9
X46.4Y-98.9
X47.8Y-107.8
X48.1Y-87.4
X48.766Y-103.707
X49.0Y-83.9
X50.4Y-108.5
X51.2Y-103.4
X51.3Y-92.2
X51.8Y-109.2
X52.9Y-86.1
X53.2Y-97.7
X54.2Y-92.65
X54.4Y-102.4
X55.0Y-104.5
X55.2Y-108.9
X57.0Y-114.8
X58.3Y-98.3
X58.4Y-100.7
X58.6Y-88.4
X58.8Y-92.0
X60.3Y-82.8
X60.5Y-102.9
X61.3Y-108.3
X61.9Y-78.6
X62.7Y-87.65
X63.3Y-90.3
X63.4Y-100.7
X64.3Y-85.125
X64.4Y-87.25
X64.6Y-89.025
X64.9Y-102.5
X65.8Y-96.0
X66.0Y-98.9
X66.1Y-89.7
X66.1Y-100.7
X66.4Y-77.4
X66.4Y-82.5
X66.5Y-113.3
X68.2Y-113.1
X70.0Y-109.8
X71.275Y-93.675
X71.3Y-89.8
X72.3Y-106.1
X74.05Y-112.0
X74.675Y-96.35
X74.7Y-82.5
X74.7Y-85.9
X75.3Y-94.3
X76.9Y-80.8
X77.2Y-110.6
X77.3Y-115.8
X77.5Y-87.45
X78.0Y-124.2
X78.8Y-82.2
X80.8Y-110.75
X80.8Y-117.2
X81.75Y-104.9
X81.9Y-94.3
X83.0Y-95.8
X83.05Y-98.75
X83.1Y-97.1
X83.2Y-102.0
T2
X70.16Y-119.75
X72.7Y-117.21
X72.7Y-122.29
X21.2Y-89.0
X21.2Y-91.0
X21.2Y-93.0
X21.2Y-95.0
X21.2Y-97.0
X21.2Y-99.0
X21.2Y-101.0
X21.2Y-103.0
X21.2Y-105.0
X21.2Y-107.0
X21.2Y-109.0
X23.2Y-89.0
X23.2Y-91.0
X23.2Y-93.0
X23.2Y-95.0
X23.2Y-97.0
X23.2Y-99.0
X23.2Y-101.0
X23.2Y-103.0
X23.2Y-105.0
X23.2Y-107.0
X23.2Y-109.0
T3
X46.3Y-116.9
X47.685Y-119.74
X49.07Y-116.9
X50.455Y-119.74
X51.84Y-116.9
X53.225Y-119.74
X54.61Y-116.9
X55.995Y-119.74
X57.38Y-116.9
X27.77Y-71.53
X27.77Y-74.07
X30.31Y-71.53
X30.31Y-74.07
X32.85Y-71.53
X32.85Y-74.07
X35.39Y-71.53
X35.39Y-74.07
X37.93Y-71.53
X37.93Y-74.07
X40.47Y-71.53
X40.47Y-74.07
X43.01Y-71.53
X43.01Y-74.07
X45.55Y-71.53
X45.55Y-74.07
X48.09Y-71.53
X48.09Y-74.07
X50.63Y-71.53
X50.63Y-74.07
X53.17Y-71.53
X53.17Y-74.07
X55.71Y-71.53
X55.71Y-74.07
X58.25Y-71.53
X58.25Y-74.07
X60.79Y-71.53
X60.79Y-74.07
X63.33Y-71.53
X63.33Y-74.07
X65.87Y-71.53
X65.87Y-74.07
X68.41Y-71.53
X68.41Y-74.07
X70.95Y-71.53
X70.95Y-74.07
X73.49Y-71.53
X73.49Y-74.07
X76.03Y-71.53
X76.03Y-74.07
X42.82Y-111.9
X45.36Y-111.9
X47.9Y-111.9
X50.44Y-111.9
X52.98Y-111.9
X55.52Y-111.9
X58.06Y-111.9
X60.6Y-111.9
X36.4Y-77.88
X36.4Y-80.42
X36.4Y-82.96
X36.4Y-85.5
X21.5Y-112.4
X24.04Y-112.4
X26.58Y-112.4
X29.12Y-112.4
T4
X39.34Y-117.2
X64.34Y-117.2
T5
X22.9Y-121.8
X80.9Y-121.8
X80.9Y-72.8
X22.9Y-72.8
T0
M30
