G04 #@! TF.GenerationSoftware,KiCad,Pcbnew,5.99.0-unknown-632494c~88~ubuntu19.10.1*
G04 #@! TF.CreationDate,2020-05-12T07:32:40+02:00*
G04 #@! TF.ProjectId,MMDVM_RPT_Hat,4d4d4456-4d5f-4525-9054-5f4861742e6b,0.3*
G04 #@! TF.SameCoordinates,Original*
G04 #@! TF.FileFunction,Soldermask,Bot*
G04 #@! TF.FilePolarity,Negative*
%FSLAX46Y46*%
G04 Gerber Fmt 4.6, Leading zero omitted, Abs format (unit mm)*
G04 Created by KiCad (PCBNEW 5.99.0-unknown-632494c~88~ubuntu19.10.1) date 2020-05-12 07:32:40*
%MOMM*%
%LPD*%
G01*
G04 APERTURE LIST*
%ADD10O,1.350000X1.350000*%
%ADD11R,1.350000X1.350000*%
%ADD12C,6.200000*%
%ADD13C,4.000000*%
%ADD14C,1.600000*%
%ADD15R,1.600000X1.600000*%
%ADD16O,1.700000X1.700000*%
%ADD17R,1.700000X1.700000*%
%ADD18C,1.440000*%
G04 APERTURE END LIST*
D10*
X21200000Y-89000000D03*
X23200000Y-89000000D03*
X21200000Y-91000000D03*
X23200000Y-91000000D03*
X21200000Y-93000000D03*
X23200000Y-93000000D03*
X21200000Y-95000000D03*
X23200000Y-95000000D03*
X21200000Y-97000000D03*
X23200000Y-97000000D03*
X21200000Y-99000000D03*
X23200000Y-99000000D03*
X21200000Y-101000000D03*
X23200000Y-101000000D03*
X21200000Y-103000000D03*
X23200000Y-103000000D03*
X21200000Y-105000000D03*
X23200000Y-105000000D03*
X21200000Y-107000000D03*
X23200000Y-107000000D03*
X21200000Y-109000000D03*
D11*
X23200000Y-109000000D03*
D12*
X80900000Y-72800000D03*
X80900000Y-121800000D03*
X22900000Y-121800000D03*
X22900000Y-72800000D03*
D13*
X64340000Y-117200000D03*
X39340000Y-117200000D03*
D14*
X55995000Y-119740000D03*
X53225000Y-119740000D03*
X50455000Y-119740000D03*
X47685000Y-119740000D03*
X57380000Y-116900000D03*
X54610000Y-116900000D03*
X51840000Y-116900000D03*
X49070000Y-116900000D03*
D15*
X46300000Y-116900000D03*
D16*
X76030000Y-71530000D03*
X76030000Y-74070000D03*
X73490000Y-71530000D03*
X73490000Y-74070000D03*
X70950000Y-71530000D03*
X70950000Y-74070000D03*
X68410000Y-71530000D03*
X68410000Y-74070000D03*
X65870000Y-71530000D03*
X65870000Y-74070000D03*
X63330000Y-71530000D03*
X63330000Y-74070000D03*
X60790000Y-71530000D03*
X60790000Y-74070000D03*
X58250000Y-71530000D03*
X58250000Y-74070000D03*
X55710000Y-71530000D03*
X55710000Y-74070000D03*
X53170000Y-71530000D03*
X53170000Y-74070000D03*
X50630000Y-71530000D03*
X50630000Y-74070000D03*
X48090000Y-71530000D03*
X48090000Y-74070000D03*
X45550000Y-71530000D03*
X45550000Y-74070000D03*
X43010000Y-71530000D03*
X43010000Y-74070000D03*
X40470000Y-71530000D03*
X40470000Y-74070000D03*
X37930000Y-71530000D03*
X37930000Y-74070000D03*
X35390000Y-71530000D03*
X35390000Y-74070000D03*
X32850000Y-71530000D03*
X32850000Y-74070000D03*
X30310000Y-71530000D03*
X30310000Y-74070000D03*
X27770000Y-71530000D03*
D17*
X27770000Y-74070000D03*
X36400000Y-85500000D03*
D16*
X36400000Y-82960000D03*
X36400000Y-80420000D03*
X36400000Y-77880000D03*
X29120000Y-112400000D03*
X26580000Y-112400000D03*
X24040000Y-112400000D03*
D17*
X21500000Y-112400000D03*
D18*
X72700000Y-117210000D03*
X70160000Y-119750000D03*
X72700000Y-122290000D03*
D16*
X42820000Y-111900000D03*
X45360000Y-111900000D03*
X47900000Y-111900000D03*
X50440000Y-111900000D03*
X52980000Y-111900000D03*
X55520000Y-111900000D03*
X58060000Y-111900000D03*
D17*
X60600000Y-111900000D03*
M02*
